<svg width="24" height="24" viewBox="0 0 24 24" fill="none" xmlns="http://www.w3.org/2000/svg">
<path d="M17.53 7.75556C17.46 7.74558 17.39 7.74558 17.32 7.75556C15.77 7.70565 14.54 6.43797 14.54 4.88082C14.54 3.29372 15.83 1.99609 17.43 1.99609C19.02 1.99609 20.32 3.28374 20.32 4.88082C20.31 6.43797 19.08 7.70565 17.53 7.75556Z" fill="#BD0265"/>
<path d="M20.7901 14.6743C19.6701 15.4229 18.1001 15.7024 16.6501 15.5127C17.0301 14.6942 17.2301 13.7859 17.2401 12.8276C17.2401 11.8295 17.0201 10.8812 16.6001 10.0527C18.0801 9.85308 19.6501 10.1326 20.7801 10.8812C22.3601 11.9193 22.3601 13.6262 20.7901 14.6743Z" fill="#BD0265"/>
<path d="M6.44016 7.75556C6.51016 7.74558 6.58016 7.74558 6.65016 7.75556C8.20016 7.70565 9.43016 6.43797 9.43016 4.88082C9.43016 3.28374 8.14016 1.99609 6.54016 1.99609C4.95016 1.99609 3.66016 3.28374 3.66016 4.88082C3.66016 6.43797 4.89016 7.70565 6.44016 7.75556Z" fill="#BD0265"/>
<path d="M6.55012 12.8259C6.55012 13.7941 6.76012 14.7124 7.14012 15.5409C5.73012 15.6906 4.26012 15.3912 3.18012 14.6825C1.60012 13.6344 1.60012 11.9275 3.18012 10.8794C4.25012 10.1607 5.76012 9.87128 7.18012 10.031C6.77012 10.8694 6.55012 11.8177 6.55012 12.8259Z" fill="#BD0265"/>
<path d="M12.1198 15.8418C12.0398 15.8318 11.9498 15.8318 11.8598 15.8418C10.0198 15.7819 8.5498 14.2747 8.5498 12.4181C8.5598 10.5216 10.0898 8.98438 11.9998 8.98438C13.8998 8.98438 15.4398 10.5216 15.4398 12.4181C15.4298 14.2747 13.9698 15.7819 12.1198 15.8418Z" fill="#BD0265"/>
<path d="M8.8698 17.9068C7.3598 18.915 7.3598 20.5719 8.8698 21.5701C10.5898 22.718 13.4098 22.718 15.1298 21.5701C16.6398 20.562 16.6398 18.905 15.1298 17.9068C13.4198 16.7589 10.5998 16.7589 8.8698 17.9068Z" fill="#BD0265"/>
</svg>
