<svg width="24" height="24" viewBox="0 0 24 24" fill="none" xmlns="http://www.w3.org/2000/svg">
<path d="M12 18.9656C15.866 18.9656 19 15.8374 19 11.9784C19 8.11949 15.866 4.99121 12 4.99121C8.13401 4.99121 5 8.11949 5 11.9784C5 15.8374 8.13401 18.9656 12 18.9656Z" fill="#BD0265"/>
<path d="M12 22.9179C11.45 22.9179 11 22.5087 11 21.9597V21.8798C11 21.3308 11.45 20.8817 12 20.8817C12.55 20.8817 13 21.3308 13 21.8798C13 22.4288 12.55 22.9179 12 22.9179ZM19.14 20.1031C18.88 20.1031 18.63 20.0033 18.43 19.8136L18.3 19.6839C17.91 19.2946 17.91 18.6657 18.3 18.2764C18.69 17.8871 19.32 17.8871 19.71 18.2764L19.84 18.4062C20.23 18.7955 20.23 19.4243 19.84 19.8136C19.65 20.0033 19.4 20.1031 19.14 20.1031ZM4.86 20.1031C4.6 20.1031 4.35 20.0033 4.15 19.8136C3.76 19.4243 3.76 18.7955 4.15 18.4062L4.28 18.2764C4.67 17.8871 5.3 17.8871 5.69 18.2764C6.08 18.6657 6.08 19.2946 5.69 19.6839L5.56 19.8136C5.37 20.0033 5.11 20.1031 4.86 20.1031ZM22 12.9761H21.92C21.37 12.9761 20.92 12.527 20.92 11.978C20.92 11.429 21.37 10.9798 21.92 10.9798C22.47 10.9798 22.96 11.429 22.96 11.978C22.96 12.527 22.55 12.9761 22 12.9761ZM2.08 12.9761H2C1.45 12.9761 1 12.527 1 11.978C1 11.429 1.45 10.9798 2 10.9798C2.55 10.9798 3.04 11.429 3.04 11.978C3.04 12.527 2.63 12.9761 2.08 12.9761ZM19.01 5.97893C18.75 5.97893 18.5 5.87912 18.3 5.68946C17.91 5.30018 17.91 4.67133 18.3 4.28204L18.43 4.15228C18.82 3.76299 19.45 3.76299 19.84 4.15228C20.23 4.54156 20.23 5.17041 19.84 5.5597L19.71 5.68946C19.52 5.87912 19.27 5.97893 19.01 5.97893ZM4.99 5.97893C4.73 5.97893 4.48 5.87912 4.28 5.68946L4.15 5.54972C3.76 5.16043 3.76 4.53158 4.15 4.14229C4.54 3.75301 5.17 3.75301 5.56 4.14229L5.69 4.27206C6.08 4.66135 6.08 5.29019 5.69 5.67948C5.5 5.87912 5.24 5.97893 4.99 5.97893ZM12 3.03432C11.45 3.03432 11 2.62507 11 2.07607V1.99622C11 1.44723 11.45 0.998047 12 0.998047C12.55 0.998047 13 1.44723 13 1.99622C13 2.54522 12.55 3.03432 12 3.03432Z" fill="#BD0265"/>
</svg>
