<svg width="24" height="24" viewBox="0 0 24 24" fill="none" xmlns="http://www.w3.org/2000/svg">
<path d="M18 1.99609H6C4.34 1.99609 3 3.32366 3 4.96067V15.8507C3 17.4878 4.34 18.8153 6 18.8153H6.76C7.56 18.8153 8.32 19.1248 8.88 19.6837L10.59 21.3706C11.37 22.1392 12.64 22.1392 13.42 21.3706L15.13 19.6837C15.69 19.1248 16.46 18.8153 17.25 18.8153H18C19.66 18.8153 21 17.4878 21 15.8507V4.96067C21 3.32366 19.66 1.99609 18 1.99609ZM12 5.73925C13.29 5.73925 14.33 6.77735 14.33 8.06499C14.33 9.35264 13.29 10.3907 12 10.3907C10.71 10.3907 9.67 9.34265 9.67 8.06499C9.67 6.77735 10.71 5.73925 12 5.73925ZM14.68 15.0322H9.32C8.51 15.0322 8.04 14.1339 8.49 13.4651C9.17 12.457 10.49 11.7782 12 11.7782C13.51 11.7782 14.83 12.457 15.51 13.4651C15.96 14.1339 15.48 15.0322 14.68 15.0322Z" fill="#BD0265"/>
</svg>
