<svg width="125" height="19" viewBox="0 0 125 19" fill="none" xmlns="http://www.w3.org/2000/svg">
<path d="M12.048 2.4717L11.208 4.3917C10.792 4.2477 10.408 4.1277 10.056 4.0317C9.72 3.9357 9.376 3.8637 9.024 3.8157C8.672 3.7517 8.24 3.7197 7.728 3.7197C6.8 3.7197 5.96 3.9837 5.208 4.5117C4.472 5.0237 3.888 5.7517 3.456 6.6957C3.024 7.6237 2.808 8.7277 2.808 10.0077C2.808 10.8397 2.912 11.6237 3.12 12.3597C3.328 13.0957 3.632 13.7517 4.032 14.3277C4.448 14.9037 4.944 15.3517 5.52 15.6717C6.112 15.9917 6.784 16.1517 7.536 16.1517C8.288 16.1517 8.952 16.0877 9.528 15.9597C10.12 15.8157 10.648 15.6397 11.112 15.4317L12.144 17.4237C11.76 17.6317 11.304 17.8157 10.776 17.9757C10.248 18.1197 9.712 18.2317 9.168 18.3117C8.624 18.3917 8.128 18.4317 7.68 18.4317C6.416 18.4317 5.304 18.2157 4.344 17.7837C3.384 17.3517 2.576 16.7517 1.92 15.9837C1.28 15.1997 0.799997 14.3037 0.479997 13.2957C0.159997 12.2717 -2.5034e-06 11.1837 -2.5034e-06 10.0317C-2.5034e-06 8.7837 0.175997 7.6397 0.527997 6.5997C0.895998 5.5437 1.416 4.6317 2.088 3.8637C2.776 3.0957 3.6 2.5037 4.56 2.0877C5.52 1.6557 6.6 1.4397 7.8 1.4397C8.12 1.4397 8.528 1.4717 9.024 1.5357C9.52 1.5997 10.032 1.7117 10.56 1.8717C11.104 2.0157 11.6 2.2157 12.048 2.4717ZM19.1891 18.4077C17.9571 18.4077 16.8931 18.1517 15.9971 17.6397C15.1011 17.1277 14.4131 16.4157 13.9331 15.5037C13.4531 14.5757 13.2131 13.5037 13.2131 12.2877C13.2131 11.0397 13.4611 9.9597 13.9571 9.0477C14.4531 8.1357 15.1491 7.4237 16.0451 6.9117C16.9571 6.3997 18.0211 6.1437 19.2371 6.1437C20.4691 6.1437 21.5251 6.3997 22.4051 6.9117C23.3011 7.4237 23.9971 8.1357 24.4931 9.0477C24.9891 9.9597 25.2371 11.0317 25.2371 12.2637C25.2371 13.4797 24.9811 14.5517 24.4691 15.4797C23.9731 16.4077 23.2771 17.1277 22.3811 17.6397C21.4851 18.1357 20.4211 18.3917 19.1891 18.4077ZM19.2131 16.0797C19.8851 16.0797 20.4611 15.9117 20.9411 15.5757C21.4211 15.2397 21.7891 14.7837 22.0451 14.2077C22.3171 13.6317 22.4531 12.9837 22.4531 12.2637C22.4531 11.5277 22.3251 10.8717 22.0691 10.2957C21.8131 9.7197 21.4451 9.2717 20.9651 8.9517C20.4851 8.6157 19.9091 8.4477 19.2371 8.4477C18.5971 8.4477 18.0291 8.6157 17.5331 8.9517C17.0371 9.2877 16.6531 9.7437 16.3811 10.3197C16.1251 10.8957 15.9891 11.5437 15.9731 12.2637C15.9731 12.9997 16.1011 13.6557 16.3571 14.2317C16.6131 14.8077 16.9891 15.2637 17.4851 15.5997C17.9811 15.9197 18.5571 16.0797 19.2131 16.0797ZM29.3091 14.6637C29.3091 14.9357 29.3731 15.1917 29.5011 15.4317C29.6451 15.6717 29.8451 15.8717 30.1011 16.0317C30.3571 16.1757 30.6611 16.2477 31.0131 16.2477C31.5251 16.2477 32.0211 16.1277 32.5011 15.8877C32.9811 15.6477 33.4291 15.3197 33.8451 14.9037V12.8157H31.2291C30.6211 12.8157 30.1491 13.0077 29.8131 13.3917C29.4771 13.7757 29.3091 14.1997 29.3091 14.6637ZM28.3251 9.3837L27.6051 7.1757C27.9091 6.9677 28.3171 6.7917 28.8291 6.6477C29.3411 6.4877 29.8611 6.3677 30.3891 6.2877C30.9171 6.1917 31.3411 6.1437 31.6611 6.1437C32.5731 6.1437 33.3971 6.3277 34.1331 6.6957C34.8691 7.0477 35.4531 7.5437 35.8851 8.1837C36.3331 8.8237 36.5571 9.5357 36.5571 10.3197V18.0957H34.7331L34.3251 16.9197C33.9091 17.3197 33.4131 17.6637 32.8371 17.9517C32.2611 18.2397 31.6691 18.3837 31.0611 18.3837C29.6691 18.3837 28.6371 18.0397 27.9651 17.3517C27.2931 16.6637 26.9571 15.7677 26.9571 14.6637C26.9571 13.4957 27.3571 12.5997 28.1571 11.9757C28.9571 11.3517 29.9971 11.0317 31.2771 11.0157H33.8211V10.9437C33.8051 10.2557 33.6371 9.6957 33.3171 9.2637C32.9971 8.8157 32.4611 8.5917 31.7091 8.5917C31.1011 8.5917 30.4931 8.6797 29.8851 8.8557C29.2931 9.0157 28.7731 9.1917 28.3251 9.3837ZM47.6702 15.3117L48.4622 17.2557C48.1262 17.4957 47.7022 17.7037 47.1902 17.8797C46.6782 18.0557 46.1822 18.1837 45.7022 18.2637C45.2222 18.3597 44.8142 18.4077 44.4782 18.4077C43.2622 18.4077 42.2062 18.1517 41.3102 17.6397C40.4142 17.1277 39.7182 16.4157 39.2222 15.5037C38.7422 14.5757 38.5022 13.5037 38.5022 12.2877C38.5022 11.0557 38.7502 9.9837 39.2462 9.0717C39.7422 8.1437 40.4382 7.4237 41.3342 6.9117C42.2462 6.3997 43.3102 6.1437 44.5262 6.1437C44.8462 6.1437 45.2462 6.1917 45.7262 6.2877C46.2062 6.3677 46.6942 6.4957 47.1902 6.6717C47.7022 6.8477 48.1422 7.0637 48.5102 7.3197L47.7182 9.2397C47.1902 9.0157 46.6782 8.8317 46.1822 8.6877C45.6862 8.5277 45.1342 8.4477 44.5262 8.4477C43.8862 8.4477 43.3182 8.6157 42.8222 8.9517C42.3262 9.2877 41.9422 9.7437 41.6702 10.3197C41.4142 10.8957 41.2782 11.5437 41.2622 12.2637C41.2622 12.9997 41.3902 13.6557 41.6462 14.2317C41.9022 14.8077 42.2782 15.2637 42.7742 15.5997C43.2702 15.9197 43.8462 16.0797 44.5022 16.0797C45.1102 16.0797 45.6542 16.0157 46.1342 15.8877C46.6302 15.7437 47.1422 15.5517 47.6702 15.3117ZM53.3527 9.9597L52.9447 7.8477C53.3927 7.4797 53.8647 7.1677 54.3607 6.9117C54.8727 6.6397 55.3927 6.4317 55.9207 6.2877C56.4487 6.1437 56.9527 6.0717 57.4327 6.0717C58.3927 6.0717 59.1447 6.2717 59.6887 6.6717C60.2487 7.0717 60.6487 7.6157 60.8887 8.3037C61.1447 8.9757 61.2727 9.7437 61.2727 10.6077V18.0957H58.5847V10.7757C58.5847 10.0077 58.4407 9.4077 58.1527 8.9757C57.8647 8.5437 57.4007 8.3277 56.7607 8.3277C56.3767 8.3277 55.9767 8.4077 55.5607 8.5677C55.1607 8.7277 54.7767 8.9357 54.4087 9.1917C54.0407 9.4477 53.6887 9.7037 53.3527 9.9597ZM53.3527 18.0957H50.6887V1.4157L53.3527 1.1517V18.0957Z" fill="#1D0A00"/>
<path d="M67.4522 18.6237C66.4602 18.6237 65.6122 18.4717 64.9082 18.1677C64.2202 17.8797 63.6922 17.4717 63.3242 16.9437C62.9562 16.4157 62.7722 15.7997 62.7722 15.0957C62.7722 14.5037 62.8842 13.9917 63.1082 13.5597C63.3482 13.1277 63.6682 12.7917 64.0682 12.5517C64.4682 12.2957 64.9162 12.1677 65.4122 12.1677C65.7642 12.1677 66.0682 12.2317 66.3242 12.3597C66.5962 12.4877 66.7962 12.6637 66.9242 12.8877C67.0682 13.0957 67.1402 13.3517 67.1402 13.6557C67.1402 13.7357 67.1322 13.8237 67.1162 13.9197C67.1002 14.0157 67.0842 14.1037 67.0682 14.1837C67.0042 14.1517 66.9242 14.1357 66.8282 14.1357C66.7482 14.1197 66.6682 14.1117 66.5882 14.1117C66.2682 14.1117 65.9962 14.2237 65.7722 14.4477C65.5482 14.6557 65.4362 14.9757 65.4362 15.4077C65.4362 15.9677 65.6602 16.3917 66.1082 16.6797C66.5722 16.9517 67.1402 17.0877 67.8122 17.0877C68.3242 17.0877 68.8042 16.9837 69.2522 16.7757C69.7002 16.5677 70.0602 16.2637 70.3322 15.8637C70.6202 15.4637 70.7642 14.9677 70.7642 14.3757C70.7642 13.8797 70.6362 13.4317 70.3802 13.0317C70.1402 12.6317 69.8282 12.2557 69.4442 11.9037C69.0762 11.5517 68.6762 11.2077 68.2442 10.8717C67.7642 10.4877 67.3002 10.0957 66.8522 9.6957C66.4042 9.2797 66.0282 8.8077 65.7242 8.2797C65.4362 7.7517 65.2922 7.1357 65.2922 6.4317C65.2922 5.6957 65.4522 5.0397 65.7722 4.4637C66.0922 3.8717 66.5162 3.3837 67.0442 2.9997C67.5882 2.5997 68.2042 2.2957 68.8922 2.0877C69.5962 1.8797 70.3242 1.7757 71.0762 1.7757C71.8762 1.7757 72.5722 1.8877 73.1642 2.1117C73.7562 2.3197 74.2122 2.6237 74.5322 3.0237C74.8682 3.4237 75.0362 3.8957 75.0362 4.4397C75.0362 4.9357 74.9402 5.3757 74.7482 5.7597C74.5562 6.1437 74.2922 6.4477 73.9562 6.6717C73.6362 6.8797 73.2762 6.9837 72.8762 6.9837C72.5722 6.9837 72.3082 6.9357 72.0842 6.8397C71.8602 6.7437 71.7002 6.6157 71.6042 6.4557C71.7962 6.3437 71.9722 6.1437 72.1322 5.8557C72.2922 5.5677 72.3722 5.2557 72.3722 4.9197C72.3722 4.4237 72.2202 4.0317 71.9162 3.7437C71.6122 3.4397 71.1162 3.2877 70.4282 3.2877C69.7242 3.2877 69.1322 3.4957 68.6522 3.9117C68.1882 4.3277 67.9562 4.8877 67.9562 5.5917C67.9562 6.0877 68.0842 6.5437 68.3402 6.9597C68.5962 7.3597 68.9242 7.7357 69.3242 8.0877C69.7402 8.4237 70.1642 8.7597 70.5962 9.0957C71.0762 9.4477 71.5322 9.8317 71.9642 10.2477C72.4122 10.6637 72.7722 11.1437 73.0442 11.6877C73.3322 12.2157 73.4762 12.8397 73.4762 13.5597C73.4762 14.3597 73.3002 15.0797 72.9482 15.7197C72.6122 16.3437 72.1482 16.8717 71.5562 17.3037C70.9802 17.7357 70.3322 18.0637 69.6122 18.2877C68.8922 18.5117 68.1722 18.6237 67.4522 18.6237ZM79.5699 18.5757C78.1779 18.5757 77.1379 18.1837 76.4499 17.3997C75.7619 16.5997 75.4179 15.4077 75.4179 13.8237C75.4179 12.7837 75.5619 11.7677 75.8499 10.7757C76.1379 9.7677 76.5619 8.8637 77.1219 8.0637C77.6979 7.2477 78.4019 6.5997 79.2339 6.1197C80.0819 5.6237 81.0739 5.3757 82.2099 5.3757C82.8659 5.3757 83.4419 5.4717 83.9379 5.6637C84.4499 5.8397 84.8499 6.1117 85.1379 6.4797C85.4259 6.8477 85.5699 7.3197 85.5699 7.8957C85.5699 8.6157 85.3619 9.1437 84.9459 9.4797C84.5299 9.8157 84.0659 9.9837 83.5539 9.9837C83.4099 9.9837 83.2339 9.9677 83.0259 9.9357C82.8339 9.8877 82.6819 9.7917 82.5699 9.6477C82.6499 9.4077 82.7219 9.1357 82.7859 8.8317C82.8659 8.5117 82.9059 8.2397 82.9059 8.0157C82.9059 7.6157 82.8099 7.3117 82.6179 7.1037C82.4419 6.8957 82.1619 6.7917 81.7779 6.7917C81.2979 6.7917 80.8659 6.9517 80.4819 7.2717C80.0979 7.5917 79.7619 8.0157 79.4739 8.5437C79.2019 9.0557 78.9699 9.6237 78.7779 10.2477C78.5859 10.8717 78.4419 11.4877 78.3459 12.0957C78.2499 12.7037 78.2019 13.2477 78.2019 13.7277C78.2019 14.5117 78.3539 15.1837 78.6579 15.7437C78.9779 16.2877 79.5539 16.5597 80.3859 16.5597C81.1219 16.5597 81.7379 16.3437 82.2339 15.9117C82.7299 15.4797 83.0819 14.9277 83.2899 14.2557C83.5939 14.3517 83.8099 14.5117 83.9379 14.7357C84.0659 14.9437 84.1299 15.1997 84.1299 15.5037C84.1299 16.0637 83.9299 16.5757 83.5299 17.0397C83.1459 17.5037 82.6099 17.8717 81.9219 18.1437C81.2339 18.4317 80.4499 18.5757 79.5699 18.5757ZM86.1043 18.3837L88.5043 5.8557L90.7843 5.5677L90.4963 7.7277C90.8003 7.0397 91.2563 6.4797 91.8643 6.0477C92.4723 5.5997 93.1523 5.3757 93.9043 5.3757C94.6883 5.3757 95.2563 5.6077 95.6083 6.0717C95.9763 6.5357 96.1603 7.1037 96.1603 7.7757C96.1603 8.5757 95.9443 9.2637 95.5123 9.8397C95.0803 10.4157 94.5123 10.7037 93.8083 10.7037C93.6163 10.7037 93.4163 10.6717 93.2083 10.6077C93.0163 10.5437 92.8643 10.4317 92.7523 10.2717C92.9603 9.9997 93.1283 9.6717 93.2563 9.2877C93.3843 8.8877 93.4483 8.5277 93.4483 8.2077C93.4483 7.9037 93.3763 7.6637 93.2323 7.4877C93.1043 7.3117 92.8883 7.2237 92.5843 7.2237C92.2003 7.2237 91.8643 7.3677 91.5763 7.6557C91.2883 7.9277 91.0483 8.2797 90.8563 8.7117C90.6643 9.1437 90.5043 9.6077 90.3763 10.1037C90.2643 10.5837 90.1683 11.0237 90.0883 11.4237L88.9123 18.0957L86.1043 18.3837ZM97.7447 18.5757C97.2327 18.5757 96.8327 18.4317 96.5447 18.1437C96.2567 17.8557 96.1127 17.4557 96.1127 16.9437C96.1127 16.7517 96.1287 16.5197 96.1607 16.2477C96.1927 15.9757 96.2327 15.6957 96.2807 15.4077C96.3287 15.1037 96.3767 14.8237 96.4247 14.5677C96.4887 14.2957 96.5367 14.0637 96.5687 13.8717L98.2007 5.8557L100.937 5.5677L98.9207 15.5997C98.9047 15.7277 98.8807 15.8957 98.8487 16.1037C98.8167 16.2957 98.8007 16.4637 98.8007 16.6077C98.8007 16.8477 98.8567 17.0397 98.9687 17.1837C99.0967 17.3277 99.2807 17.4077 99.5207 17.4237C99.4247 17.8237 99.2007 18.1117 98.8487 18.2877C98.5127 18.4797 98.1447 18.5757 97.7447 18.5757ZM100.169 3.7437C99.6567 3.7437 99.2327 3.6237 98.8967 3.3837C98.5607 3.1277 98.3927 2.7517 98.3927 2.2557C98.3927 1.7277 98.5687 1.3437 98.9207 1.1037C99.2727 0.847703 99.7047 0.719702 100.217 0.719702C100.729 0.719702 101.153 0.847703 101.489 1.1037C101.825 1.3437 101.993 1.7117 101.993 2.2077C101.993 2.7357 101.817 3.1277 101.465 3.3837C101.113 3.6237 100.681 3.7437 100.169 3.7437ZM106.454 18.5757C105.99 18.5757 105.478 18.5277 104.918 18.4317C104.358 18.3517 103.814 18.2237 103.286 18.0477C102.758 17.8557 102.302 17.6317 101.918 17.3757L103.838 7.5597L106.07 7.7997C106.486 7.0317 107.022 6.4397 107.678 6.0237C108.334 5.5917 109.086 5.3757 109.934 5.3757C110.75 5.3757 111.398 5.5757 111.878 5.9757C112.374 6.3757 112.726 6.9197 112.934 7.6077C113.158 8.2957 113.27 9.0637 113.27 9.9117C113.27 10.9677 113.126 12.0077 112.838 13.0317C112.566 14.0557 112.15 14.9917 111.59 15.8397C111.03 16.6717 110.318 17.3357 109.454 17.8317C108.606 18.3277 107.606 18.5757 106.454 18.5757ZM106.79 17.1357C107.27 17.1357 107.702 16.9997 108.086 16.7277C108.486 16.4397 108.83 16.0557 109.118 15.5757C109.422 15.0797 109.678 14.5117 109.886 13.8717C110.094 13.2157 110.246 12.5277 110.342 11.8077C110.438 11.0717 110.486 10.3357 110.486 9.5997C110.486 8.8477 110.374 8.2637 110.15 7.8477C109.926 7.4317 109.534 7.2237 108.974 7.2237C108.494 7.2237 108.07 7.3517 107.702 7.6077C107.334 7.8637 107.022 8.1997 106.766 8.6157C106.51 9.0317 106.294 9.4877 106.118 9.9837C105.958 10.4637 105.83 10.9357 105.734 11.3997L104.798 16.4157C105.102 16.6557 105.43 16.8397 105.782 16.9677C106.134 17.0797 106.47 17.1357 106.79 17.1357ZM106.07 8.1117L103.814 7.7277C103.942 7.0717 104.07 6.3517 104.198 5.5677C104.326 4.7677 104.438 3.9917 104.534 3.2397C104.63 2.4717 104.678 1.8077 104.678 1.2477C104.694 1.0557 104.694 0.887702 104.678 0.743702C104.678 0.599702 104.662 0.463702 104.63 0.335703C104.79 0.223702 104.982 0.143702 105.206 0.0957017C105.43 0.0317025 105.654 -0.00029707 105.878 -0.00029707C106.31 -0.00029707 106.702 0.127703 107.054 0.383702C107.406 0.623702 107.582 1.0637 107.582 1.7037C107.582 2.1677 107.51 2.7517 107.366 3.4557C107.238 4.1437 107.062 4.8957 106.838 5.7117C106.614 6.5117 106.358 7.3117 106.07 8.1117ZM119.115 18.5757C118.203 18.5757 117.411 18.4077 116.739 18.0717C116.083 17.7197 115.579 17.1917 115.227 16.4877C114.875 15.7837 114.699 14.8957 114.699 13.8237C114.699 12.8157 114.835 11.8157 115.107 10.8237C115.395 9.8157 115.819 8.9037 116.379 8.0877C116.939 7.2717 117.651 6.6157 118.515 6.1197C119.395 5.6237 120.427 5.3757 121.611 5.3757C122.235 5.3757 122.795 5.4637 123.291 5.6397C123.787 5.8157 124.179 6.1037 124.467 6.5037C124.755 6.9037 124.899 7.4477 124.899 8.1357C124.899 9.0637 124.619 9.8477 124.059 10.4877C123.515 11.1117 122.787 11.5917 121.875 11.9277C120.963 12.2477 119.955 12.4077 118.851 12.4077C118.643 12.4077 118.411 12.4077 118.155 12.4077C117.915 12.3917 117.715 12.3757 117.555 12.3597C117.539 12.6157 117.523 12.8717 117.507 13.1277C117.491 13.3677 117.483 13.5917 117.483 13.7997C117.483 14.6637 117.643 15.3437 117.963 15.8397C118.283 16.3197 118.867 16.5597 119.715 16.5597C120.403 16.5597 121.019 16.3997 121.563 16.0797C122.107 15.7437 122.531 15.2717 122.835 14.6637C123.059 14.7277 123.211 14.8557 123.291 15.0477C123.371 15.2397 123.411 15.4397 123.411 15.6477C123.411 16.1277 123.243 16.5917 122.907 17.0397C122.571 17.4877 122.083 17.8557 121.443 18.1437C120.803 18.4317 120.027 18.5757 119.115 18.5757ZM117.723 11.1837C118.267 11.1837 118.803 11.1277 119.331 11.0157C119.875 10.9037 120.371 10.7277 120.819 10.4877C121.267 10.2317 121.619 9.9117 121.875 9.5277C122.147 9.1277 122.283 8.6637 122.283 8.1357C122.283 7.6717 122.171 7.3277 121.947 7.1037C121.739 6.8637 121.435 6.7437 121.035 6.7437C120.587 6.7437 120.171 6.8877 119.787 7.1757C119.419 7.4477 119.099 7.8077 118.827 8.2557C118.555 8.7037 118.323 9.1837 118.131 9.6957C117.955 10.2077 117.819 10.7037 117.723 11.1837Z" fill="#BD0265"/>
</svg>
