<svg xmlns="http://www.w3.org/2000/svg" width="24" height="24" viewBox="0 0 24 24" fill="none">
  <circle cx="12" cy="12" r="11" fill="#BD0265"/>

  <path d="M0 -1L0.29 -0.31H1L0.43 0.12L0.64 0.81L0 0.39L-0.64 0.81L-0.43 0.12L-1 -0.31H-0.29L0 -1Z" transform="translate(12 3.9) scale(1.8)" fill="white"/>
  <path d="M0 -1L0.29 -0.31H1L0.43 0.12L0.64 0.81L0 0.39L-0.64 0.81L-0.43 0.12L-1 -0.31H-0.29L0 -1Z" transform="translate(15.9 4.95) scale(1.8)" fill="white"/>
  <path d="M0 -1L0.29 -0.31H1L0.43 0.12L0.64 0.81L0 0.39L-0.64 0.81L-0.43 0.12L-1 -0.31H-0.29L0 -1Z" transform="translate(18.75 7.85) scale(1.8)" fill="white"/>
  <path d="M0 -1L0.29 -0.31H1L0.43 0.12L0.64 0.81L0 0.39L-0.64 0.81L-0.43 0.12L-1 -0.31H-0.29L0 -1Z" transform="translate(19.8 12) scale(1.8)" fill="white"/>
  <path d="M0 -1L0.29 -0.31H1L0.43 0.12L0.64 0.81L0 0.39L-0.64 0.81L-0.43 0.12L-1 -0.31H-0.29L0 -1Z" transform="translate(18.75 16.15) scale(1.8)" fill="white"/>
  <path d="M0 -1L0.29 -0.31H1L0.43 0.12L0.64 0.81L0 0.39L-0.64 0.81L-0.43 0.12L-1 -0.31H-0.29L0 -1Z" transform="translate(15.9 19.05) scale(1.8)" fill="white"/>
  <path d="M0 -1L0.29 -0.31H1L0.43 0.12L0.64 0.81L0 0.39L-0.64 0.81L-0.43 0.12L-1 -0.31H-0.29L0 -1Z" transform="translate(12 20.1) scale(1.8)" fill="white"/>
  <path d="M0 -1L0.29 -0.31H1L0.43 0.12L0.64 0.81L0 0.39L-0.64 0.81L-0.43 0.12L-1 -0.31H-0.29L0 -1Z" transform="translate(8.1 19.05) scale(1.8)" fill="white"/>
  <path d="M0 -1L0.29 -0.31H1L0.43 0.12L0.64 0.81L0 0.39L-0.64 0.81L-0.43 0.12L-1 -0.31H-0.29L0 -1Z" transform="translate(5.25 16.15) scale(1.8)" fill="white"/>
  <path d="M0 -1L0.29 -0.31H1L0.43 0.12L0.64 0.81L0 0.39L-0.64 0.81L-0.43 0.12L-1 -0.31H-0.29L0 -1Z" transform="translate(4.2 12) scale(1.8)" fill="white"/>
  <path d="M0 -1L0.29 -0.31H1L0.43 0.12L0.64 0.81L0 0.39L-0.64 0.81L-0.43 0.12L-1 -0.31H-0.29L0 -1Z" transform="translate(5.25 7.85) scale(1.8)" fill="white"/>
  <path d="M0 -1L0.29 -0.31H1L0.43 0.12L0.64 0.81L0 0.39L-0.64 0.81L-0.43 0.12L-1 -0.31H-0.29L0 -1Z" transform="translate(8.1 4.95) scale(1.8)" fill="white"/>
</svg>
