<svg width="192" height="133" viewBox="0 0 192 133" fill="none" xmlns="http://www.w3.org/2000/svg">
<g filter="url(#filter0_d_4_526)">
<path d="M39.0668 44.2589L36.1566 48.9302L39.2416 47.7765L41.8915 44.5226L45.9925 44.2617L48.0536 40.9568L47.6769 37.9339L50.9717 37.5438L54.0995 33.9225L53.4468 30.7723L57.1729 30.0388L61.9403 23.6357C53.4584 23.4317 48.3652 26.1628 38.4025 38.3786L39.0668 44.2589Z" fill="url(#paint0_linear_4_526)"/>
<path d="M79.6267 27.0199L78.7867 28.9399C78.3707 28.7959 77.9867 28.6759 77.6347 28.5799C77.2987 28.4839 76.9547 28.4119 76.6027 28.3639C76.2507 28.2999 75.8187 28.2679 75.3067 28.2679C74.3787 28.2679 73.5387 28.5319 72.7867 29.0599C72.0507 29.5719 71.4667 30.2999 71.0347 31.2439C70.6027 32.1719 70.3867 33.2759 70.3867 34.5559C70.3867 35.3879 70.4907 36.1719 70.6987 36.9079C70.9067 37.6439 71.2107 38.2999 71.6107 38.8759C72.0267 39.4519 72.5227 39.8999 73.0987 40.2199C73.6907 40.5399 74.3627 40.6999 75.1147 40.6999C75.8667 40.6999 76.5307 40.6359 77.1067 40.5079C77.6987 40.3639 78.2267 40.1879 78.6907 39.9799L79.7227 41.9719C79.3387 42.1799 78.8827 42.3639 78.3547 42.5239C77.8267 42.6679 77.2907 42.7799 76.7467 42.8599C76.2027 42.9399 75.7067 42.9799 75.2587 42.9799C73.9947 42.9799 72.8827 42.7639 71.9227 42.3319C70.9627 41.8999 70.1547 41.2999 69.4987 40.5319C68.8587 39.7479 68.3787 38.8519 68.0587 37.8439C67.7387 36.8199 67.5787 35.7319 67.5787 34.5799C67.5787 33.3319 67.7547 32.1879 68.1067 31.1479C68.4747 30.0919 68.9947 29.1799 69.6667 28.4119C70.3547 27.6439 71.1787 27.0519 72.1387 26.6359C73.0987 26.2039 74.1787 25.9879 75.3787 25.9879C75.6987 25.9879 76.1067 26.0199 76.6027 26.0839C77.0987 26.1479 77.6107 26.2599 78.1387 26.4199C78.6827 26.5639 79.1787 26.7639 79.6267 27.0199ZM86.7679 42.9559C85.5359 42.9559 84.4719 42.6999 83.5759 42.1879C82.6799 41.6759 81.9919 40.9639 81.5119 40.0519C81.0319 39.1239 80.7919 38.0519 80.7919 36.8359C80.7919 35.5879 81.0399 34.5079 81.5359 33.5959C82.0319 32.6839 82.7279 31.9719 83.6239 31.4599C84.5359 30.9479 85.5999 30.6919 86.8159 30.6919C88.0479 30.6919 89.1039 30.9479 89.9839 31.4599C90.8799 31.9719 91.5759 32.6839 92.0719 33.5959C92.5679 34.5079 92.8159 35.5799 92.8159 36.8119C92.8159 38.0279 92.5599 39.0999 92.0479 40.0279C91.5519 40.9559 90.8559 41.6759 89.9599 42.1879C89.0639 42.6839 87.9999 42.9399 86.7679 42.9559ZM86.7919 40.6279C87.4639 40.6279 88.0399 40.4599 88.5199 40.1239C88.9999 39.7879 89.3679 39.3319 89.6239 38.7559C89.8959 38.1799 90.0319 37.5319 90.0319 36.8119C90.0319 36.0759 89.9039 35.4199 89.6479 34.8439C89.3919 34.2679 89.0239 33.8199 88.5439 33.4999C88.0639 33.1639 87.4879 32.9959 86.8159 32.9959C86.1759 32.9959 85.6079 33.1639 85.1119 33.4999C84.6159 33.8359 84.2319 34.2919 83.9599 34.8679C83.7039 35.4439 83.5679 36.0919 83.5519 36.8119C83.5519 37.5479 83.6799 38.2039 83.9359 38.7799C84.1919 39.3559 84.5679 39.8119 85.0639 40.1479C85.5599 40.4679 86.1359 40.6279 86.7919 40.6279ZM97.7518 42.6439H95.0878V25.9639L97.7518 25.6999V42.6439ZM103.489 42.6439H100.777V31.0039H103.489V42.6439ZM102.097 29.1319C101.649 29.1319 101.273 28.9799 100.969 28.6759C100.681 28.3719 100.537 27.9879 100.537 27.5239C100.537 27.0759 100.681 26.6999 100.969 26.3959C101.273 26.0919 101.649 25.9399 102.097 25.9399C102.529 25.9399 102.905 26.0919 103.225 26.3959C103.545 26.6999 103.705 27.0759 103.705 27.5239C103.705 27.9719 103.545 28.3559 103.225 28.6759C102.921 28.9799 102.545 29.1319 102.097 29.1319ZM107.894 42.6439H106.478V25.9639L109.142 25.6999V40.8919L107.894 42.6439ZM108.182 34.6519L107.414 32.8039C107.766 32.3399 108.174 31.9559 108.638 31.6519C109.102 31.3319 109.574 31.0919 110.054 30.9319C110.55 30.7719 111.014 30.6919 111.446 30.6919C112.646 30.6919 113.678 30.9479 114.542 31.4599C115.422 31.9559 116.094 32.6679 116.558 33.5959C117.038 34.5079 117.278 35.5879 117.278 36.8359C117.278 38.0519 117.038 39.1239 116.558 40.0519C116.078 40.9639 115.398 41.6759 114.518 42.1879C113.654 42.6999 112.606 42.9559 111.374 42.9559C110.99 42.9559 110.534 42.8679 110.006 42.6919C109.494 42.5159 108.998 42.2679 108.518 41.9479C108.054 41.6279 107.67 41.2519 107.366 40.8199L108.158 38.9479C108.686 39.5719 109.198 40.0119 109.694 40.2679C110.206 40.5079 110.766 40.6279 111.374 40.6279C112.046 40.6279 112.614 40.4679 113.078 40.1479C113.542 39.8119 113.894 39.3559 114.134 38.7799C114.374 38.2039 114.494 37.5639 114.494 36.8599C114.494 36.0919 114.374 35.4199 114.134 34.8439C113.91 34.2679 113.566 33.8199 113.102 33.4999C112.638 33.1639 112.07 32.9959 111.398 32.9959C110.758 32.9959 110.19 33.1319 109.694 33.4039C109.214 33.6759 108.71 34.0919 108.182 34.6519ZM122.005 42.6439H119.317V31.0039H120.757L121.645 32.9239C121.965 32.6519 122.349 32.3719 122.797 32.0839C123.245 31.7799 123.709 31.5239 124.189 31.3159C124.685 31.1079 125.141 31.0039 125.557 31.0039L126.133 33.1639C125.749 33.1639 125.309 33.2599 124.813 33.4519C124.333 33.6439 123.845 33.8919 123.349 34.1959C122.869 34.4999 122.421 34.8439 122.005 35.2279V42.6439ZM129.794 39.2119C129.794 39.4839 129.858 39.7399 129.986 39.9799C130.13 40.2199 130.33 40.4199 130.586 40.5799C130.842 40.7239 131.146 40.7959 131.498 40.7959C132.01 40.7959 132.506 40.6759 132.986 40.4359C133.466 40.1959 133.914 39.8679 134.33 39.4519V37.3639H131.714C131.106 37.3639 130.634 37.5559 130.298 37.9399C129.962 38.3239 129.794 38.7479 129.794 39.2119ZM128.81 33.9319L128.09 31.7239C128.394 31.5159 128.802 31.3399 129.314 31.1959C129.826 31.0359 130.346 30.9159 130.874 30.8359C131.402 30.7399 131.826 30.6919 132.146 30.6919C133.058 30.6919 133.882 30.8759 134.618 31.2439C135.354 31.5959 135.938 32.0919 136.37 32.7319C136.818 33.3719 137.042 34.0839 137.042 34.8679V42.6439H135.218L134.81 41.4679C134.394 41.8679 133.898 42.2119 133.322 42.4999C132.746 42.7879 132.154 42.9319 131.546 42.9319C130.154 42.9319 129.122 42.5879 128.45 41.8999C127.778 41.2119 127.442 40.3159 127.442 39.2119C127.442 38.0439 127.842 37.1479 128.642 36.5239C129.442 35.8999 130.482 35.5799 131.762 35.5639H134.306V35.4919C134.29 34.8039 134.122 34.2439 133.802 33.8119C133.482 33.3639 132.946 33.1399 132.194 33.1399C131.586 33.1399 130.978 33.2279 130.37 33.4039C129.778 33.5639 129.258 33.7399 128.81 33.9319Z" fill="url(#paint1_linear_4_526)"/>
</g>
<defs>
<filter id="filter0_d_4_526" x="-17.8434" y="-0.374756" width="208.885" height="133.305" filterUnits="userSpaceOnUse" color-interpolation-filters="sRGB">
<feFlood flood-opacity="0" result="BackgroundImageFix"/>
<feColorMatrix in="SourceAlpha" type="matrix" values="0 0 0 0 0 0 0 0 0 0 0 0 0 0 0 0 0 0 127 0" result="hardAlpha"/>
<feOffset dy="30"/>
<feGaussianBlur stdDeviation="27"/>
<feComposite in2="hardAlpha" operator="out"/>
<feColorMatrix type="matrix" values="0 0 0 0 0 0 0 0 0 0 0 0 0 0 0 0 0 0 0.1 0"/>
<feBlend mode="normal" in2="BackgroundImageFix" result="effect1_dropShadow_4_526"/>
<feBlend mode="normal" in="SourceGraphic" in2="effect1_dropShadow_4_526" result="shape"/>
</filter>
<linearGradient id="paint0_linear_4_526" x1="37.7876" y1="47.8891" x2="60.2602" y2="23.3276" gradientUnits="userSpaceOnUse">
<stop stop-color="#7E0056"/>
<stop offset="1" stop-color="#F20070"/>
</linearGradient>
<linearGradient id="paint1_linear_4_526" x1="138.9" y1="23.861" x2="67.1828" y2="48.6775" gradientUnits="userSpaceOnUse">
<stop stop-color="#F20070"/>
<stop offset="1" stop-color="#7F0157"/>
</linearGradient>
</defs>
</svg>
