<svg width="261" height="132" viewBox="0 0 261 132" fill="none" xmlns="http://www.w3.org/2000/svg">
<g filter="url(#filter0_d_728_1815)">
<path d="M56.6752 43.4593L54 47.8647L56.8359 46.7767L59.2718 43.708L63.0417 43.462L64.9365 40.3452L64.5901 37.4943L67.6189 37.1264L70.4942 33.7112L69.8942 30.7403L73.3194 30.0485L77.7019 24.0099C69.9048 23.8175 65.2229 26.3932 56.0646 37.9137L56.6752 43.4593Z" fill="url(#paint0_linear_728_1815)"/>
<path d="M94.139 27.7871L93.299 29.7071C92.883 29.5631 92.499 29.4431 92.147 29.3471C91.811 29.2511 91.467 29.1791 91.115 29.1311C90.763 29.0671 90.331 29.0351 89.819 29.0351C88.891 29.0351 88.051 29.2991 87.299 29.8271C86.563 30.3391 85.979 31.0671 85.547 32.0111C85.115 32.9391 84.899 34.0431 84.899 35.3231C84.899 36.1551 85.003 36.9391 85.211 37.6751C85.419 38.4111 85.723 39.0671 86.123 39.6431C86.539 40.2191 87.035 40.6671 87.611 40.9871C88.203 41.3071 88.875 41.4671 89.627 41.4671C90.379 41.4671 91.043 41.4031 91.619 41.2751C92.211 41.1311 92.739 40.9551 93.203 40.7471L94.235 42.7391C93.851 42.9471 93.395 43.1311 92.867 43.2911C92.339 43.4351 91.803 43.5471 91.259 43.6271C90.715 43.7071 90.219 43.7471 89.771 43.7471C88.507 43.7471 87.395 43.5311 86.435 43.0991C85.475 42.6671 84.667 42.0671 84.011 41.2991C83.371 40.5151 82.891 39.6191 82.571 38.6111C82.251 37.5871 82.091 36.4991 82.091 35.3471C82.091 34.0991 82.267 32.9551 82.619 31.9151C82.987 30.8591 83.507 29.9471 84.179 29.1791C84.867 28.4111 85.691 27.8191 86.651 27.4031C87.611 26.9711 88.691 26.7551 89.891 26.7551C90.211 26.7551 90.619 26.7871 91.115 26.8511C91.611 26.9151 92.123 27.0271 92.651 27.1871C93.195 27.3311 93.691 27.5311 94.139 27.7871ZM101.28 43.7231C100.048 43.7231 98.9841 43.4671 98.0881 42.9551C97.1921 42.4431 96.5041 41.7311 96.0241 40.8191C95.5441 39.8911 95.3041 38.8191 95.3041 37.6031C95.3041 36.3551 95.5521 35.2751 96.0481 34.3631C96.5441 33.4511 97.2401 32.7391 98.1361 32.2271C99.0481 31.7151 100.112 31.4591 101.328 31.4591C102.56 31.4591 103.616 31.7151 104.496 32.2271C105.392 32.7391 106.088 33.4511 106.584 34.3631C107.08 35.2751 107.328 36.3471 107.328 37.5791C107.328 38.7951 107.072 39.8671 106.56 40.7951C106.064 41.7231 105.368 42.4431 104.472 42.9551C103.576 43.4511 102.512 43.7071 101.28 43.7231ZM101.304 41.3951C101.976 41.3951 102.552 41.2271 103.032 40.8911C103.512 40.5551 103.88 40.0991 104.136 39.5231C104.408 38.9471 104.544 38.2991 104.544 37.5791C104.544 36.8431 104.416 36.1871 104.16 35.6111C103.904 35.0351 103.536 34.5871 103.056 34.2671C102.576 33.9311 102 33.7631 101.328 33.7631C100.688 33.7631 100.12 33.9311 99.6241 34.2671C99.1281 34.6031 98.7441 35.0591 98.4721 35.6351C98.2161 36.2111 98.0801 36.8591 98.0641 37.5791C98.0641 38.3151 98.1921 38.9711 98.4481 39.5471C98.7041 40.1231 99.0801 40.5791 99.5761 40.9151C100.072 41.2351 100.648 41.3951 101.304 41.3951ZM111.4 39.9791C111.4 40.2511 111.464 40.5071 111.592 40.7471C111.736 40.9871 111.936 41.1871 112.192 41.3471C112.448 41.4911 112.752 41.5631 113.104 41.5631C113.616 41.5631 114.112 41.4431 114.592 41.2031C115.072 40.9631 115.52 40.6351 115.936 40.2191V38.1311H113.32C112.712 38.1311 112.24 38.3231 111.904 38.7071C111.568 39.0911 111.4 39.5151 111.4 39.9791ZM110.416 34.6991L109.696 32.4911C110 32.2831 110.408 32.1071 110.92 31.9631C111.432 31.8031 111.952 31.6831 112.48 31.6031C113.008 31.5071 113.432 31.4591 113.752 31.4591C114.664 31.4591 115.488 31.6431 116.224 32.0111C116.96 32.3631 117.544 32.8591 117.976 33.4991C118.424 34.1391 118.648 34.8511 118.648 35.6351V43.4111H116.824L116.416 42.2351C116 42.6351 115.504 42.9791 114.928 43.2671C114.352 43.5551 113.76 43.6991 113.152 43.6991C111.76 43.6991 110.728 43.3551 110.056 42.6671C109.384 41.9791 109.048 41.0831 109.048 39.9791C109.048 38.8111 109.448 37.9151 110.248 37.2911C111.048 36.6671 112.088 36.3471 113.368 36.3311H115.912V36.2591C115.896 35.5711 115.728 35.0111 115.408 34.5791C115.088 34.1311 114.552 33.9071 113.8 33.9071C113.192 33.9071 112.584 33.9951 111.976 34.1711C111.384 34.3311 110.864 34.5071 110.416 34.6991ZM129.761 40.6271L130.553 42.5711C130.217 42.8111 129.793 43.0191 129.281 43.1951C128.769 43.3711 128.273 43.4991 127.793 43.5791C127.313 43.6751 126.905 43.7231 126.569 43.7231C125.353 43.7231 124.297 43.4671 123.401 42.9551C122.505 42.4431 121.809 41.7311 121.313 40.8191C120.833 39.8911 120.593 38.8191 120.593 37.6031C120.593 36.3711 120.841 35.2991 121.337 34.3871C121.833 33.4591 122.529 32.7391 123.425 32.2271C124.337 31.7151 125.401 31.4591 126.617 31.4591C126.937 31.4591 127.337 31.5071 127.817 31.6031C128.297 31.6831 128.785 31.8111 129.281 31.9871C129.793 32.1631 130.233 32.3791 130.601 32.6351L129.809 34.5551C129.281 34.3311 128.769 34.1471 128.273 34.0031C127.777 33.8431 127.225 33.7631 126.617 33.7631C125.977 33.7631 125.409 33.9311 124.913 34.2671C124.417 34.6031 124.033 35.0591 123.761 35.6351C123.505 36.2111 123.369 36.8591 123.353 37.5791C123.353 38.3151 123.481 38.9711 123.737 39.5471C123.993 40.1231 124.369 40.5791 124.865 40.9151C125.361 41.2351 125.937 41.3951 126.593 41.3951C127.201 41.3951 127.745 41.3311 128.225 41.2031C128.721 41.0591 129.233 40.8671 129.761 40.6271ZM135.444 35.2751L135.036 33.1631C135.484 32.7951 135.956 32.4831 136.452 32.2271C136.964 31.9551 137.484 31.7471 138.012 31.6031C138.54 31.4591 139.044 31.3871 139.524 31.3871C140.484 31.3871 141.236 31.5871 141.78 31.9871C142.34 32.3871 142.74 32.9311 142.98 33.6191C143.236 34.2911 143.364 35.0591 143.364 35.9231V43.4111H140.676V36.0911C140.676 35.3231 140.532 34.7231 140.244 34.2911C139.956 33.8591 139.492 33.6431 138.852 33.6431C138.468 33.6431 138.068 33.7231 137.652 33.8831C137.252 34.0431 136.868 34.2511 136.5 34.5071C136.132 34.7631 135.78 35.0191 135.444 35.2751ZM135.444 43.4111H132.78V26.7311L135.444 26.4671V43.4111Z" fill="#1D0A00"/>
<path d="M149.543 43.9391C148.551 43.9391 147.703 43.7871 146.999 43.4831C146.311 43.1951 145.783 42.7871 145.415 42.2591C145.047 41.7311 144.863 41.1151 144.863 40.4111C144.863 39.8191 144.975 39.3071 145.199 38.8751C145.439 38.4431 145.759 38.1071 146.159 37.8671C146.559 37.6111 147.007 37.4831 147.503 37.4831C147.855 37.4831 148.159 37.5471 148.415 37.6751C148.687 37.8031 148.887 37.9791 149.015 38.2031C149.159 38.4111 149.231 38.6671 149.231 38.9711C149.231 39.0511 149.223 39.1391 149.207 39.2351C149.191 39.3311 149.175 39.4191 149.159 39.4991C149.095 39.4671 149.015 39.4511 148.919 39.4511C148.839 39.4351 148.759 39.4271 148.679 39.4271C148.359 39.4271 148.087 39.5391 147.863 39.7631C147.639 39.9711 147.527 40.2911 147.527 40.7231C147.527 41.2831 147.751 41.7071 148.199 41.9951C148.663 42.2671 149.231 42.4031 149.903 42.4031C150.415 42.4031 150.895 42.2991 151.343 42.0911C151.791 41.8831 152.151 41.5791 152.423 41.1791C152.711 40.7791 152.855 40.2831 152.855 39.6911C152.855 39.1951 152.727 38.7471 152.471 38.3471C152.231 37.9471 151.919 37.5711 151.535 37.2191C151.167 36.8671 150.767 36.5231 150.335 36.1871C149.855 35.8031 149.391 35.4111 148.943 35.0111C148.495 34.5951 148.119 34.1231 147.815 33.5951C147.527 33.0671 147.383 32.4511 147.383 31.7471C147.383 31.0111 147.543 30.3551 147.863 29.7791C148.183 29.1871 148.607 28.6991 149.135 28.3151C149.679 27.9151 150.295 27.6111 150.983 27.4031C151.687 27.1951 152.415 27.0911 153.167 27.0911C153.967 27.0911 154.663 27.2031 155.255 27.4271C155.847 27.6351 156.303 27.9391 156.623 28.3391C156.959 28.7391 157.127 29.2111 157.127 29.7551C157.127 30.2511 157.031 30.6911 156.839 31.0751C156.647 31.4591 156.383 31.7631 156.047 31.9871C155.727 32.1951 155.367 32.2991 154.967 32.2991C154.663 32.2991 154.399 32.2511 154.175 32.1551C153.951 32.0591 153.791 31.9311 153.695 31.7711C153.887 31.6591 154.063 31.4591 154.223 31.1711C154.383 30.8831 154.463 30.5711 154.463 30.2351C154.463 29.7391 154.311 29.3471 154.007 29.0591C153.703 28.7551 153.207 28.6031 152.519 28.6031C151.815 28.6031 151.223 28.8111 150.743 29.2271C150.279 29.6431 150.047 30.2031 150.047 30.9071C150.047 31.4031 150.175 31.8591 150.431 32.2751C150.687 32.6751 151.015 33.0511 151.415 33.4031C151.831 33.7391 152.255 34.0751 152.687 34.4111C153.167 34.7631 153.623 35.1471 154.055 35.5631C154.503 35.9791 154.863 36.4591 155.135 37.0031C155.423 37.5311 155.567 38.1551 155.567 38.8751C155.567 39.6751 155.391 40.3951 155.039 41.0351C154.703 41.6591 154.239 42.1871 153.647 42.6191C153.071 43.0511 152.423 43.3791 151.703 43.6031C150.983 43.8271 150.263 43.9391 149.543 43.9391ZM161.661 43.8911C160.269 43.8911 159.229 43.4991 158.541 42.7151C157.853 41.9151 157.509 40.7231 157.509 39.1391C157.509 38.0991 157.653 37.0831 157.941 36.0911C158.229 35.0831 158.653 34.1791 159.213 33.3791C159.789 32.5631 160.493 31.9151 161.325 31.4351C162.173 30.9391 163.165 30.6911 164.301 30.6911C164.957 30.6911 165.533 30.7871 166.029 30.9791C166.541 31.1551 166.941 31.4271 167.229 31.7951C167.517 32.1631 167.661 32.6351 167.661 33.2111C167.661 33.9311 167.453 34.4591 167.037 34.7951C166.621 35.1311 166.157 35.2991 165.645 35.2991C165.501 35.2991 165.325 35.2831 165.117 35.2511C164.925 35.2031 164.773 35.1071 164.661 34.9631C164.741 34.7231 164.813 34.4511 164.877 34.1471C164.957 33.8271 164.997 33.5551 164.997 33.3311C164.997 32.9311 164.901 32.6271 164.709 32.4191C164.533 32.2111 164.253 32.1071 163.869 32.1071C163.389 32.1071 162.957 32.2671 162.573 32.5871C162.189 32.9071 161.853 33.3311 161.565 33.8591C161.293 34.3711 161.061 34.9391 160.869 35.5631C160.677 36.1871 160.533 36.8031 160.437 37.4111C160.341 38.0191 160.293 38.5631 160.293 39.0431C160.293 39.8271 160.445 40.4991 160.749 41.0591C161.069 41.6031 161.645 41.8751 162.477 41.8751C163.213 41.8751 163.829 41.6591 164.325 41.2271C164.821 40.7951 165.173 40.2431 165.381 39.5711C165.685 39.6671 165.901 39.8271 166.029 40.0511C166.157 40.2591 166.221 40.5151 166.221 40.8191C166.221 41.3791 166.021 41.8911 165.621 42.3551C165.237 42.8191 164.701 43.1871 164.013 43.4591C163.325 43.7471 162.541 43.8911 161.661 43.8911ZM168.195 43.6991L170.595 31.1711L172.875 30.8831L172.587 33.0431C172.891 32.3551 173.347 31.7951 173.955 31.3631C174.563 30.9151 175.243 30.6911 175.995 30.6911C176.779 30.6911 177.347 30.9231 177.699 31.3871C178.067 31.8511 178.251 32.4191 178.251 33.0911C178.251 33.8911 178.035 34.5791 177.603 35.1551C177.171 35.7311 176.603 36.0191 175.899 36.0191C175.707 36.0191 175.507 35.9871 175.299 35.9231C175.107 35.8591 174.955 35.7471 174.843 35.5871C175.051 35.3151 175.219 34.9871 175.347 34.6031C175.475 34.2031 175.539 33.8431 175.539 33.5231C175.539 33.2191 175.467 32.9791 175.323 32.8031C175.195 32.6271 174.979 32.5391 174.675 32.5391C174.291 32.5391 173.955 32.6831 173.667 32.9711C173.379 33.2431 173.139 33.5951 172.947 34.0271C172.755 34.4591 172.595 34.9231 172.467 35.4191C172.355 35.8991 172.259 36.3391 172.179 36.7391L171.003 43.4111L168.195 43.6991ZM179.836 43.8911C179.324 43.8911 178.924 43.7471 178.636 43.4591C178.348 43.1711 178.204 42.7711 178.204 42.2591C178.204 42.0671 178.22 41.8351 178.252 41.5631C178.284 41.2911 178.324 41.0111 178.372 40.7231C178.42 40.4191 178.468 40.1391 178.516 39.8831C178.58 39.6111 178.628 39.3791 178.66 39.1871L180.292 31.1711L183.028 30.8831L181.012 40.9151C180.996 41.0431 180.972 41.2111 180.94 41.4191C180.908 41.6111 180.892 41.7791 180.892 41.9231C180.892 42.1631 180.948 42.3551 181.06 42.4991C181.188 42.6431 181.372 42.7231 181.612 42.7391C181.516 43.1391 181.292 43.4271 180.94 43.6031C180.604 43.7951 180.236 43.8911 179.836 43.8911ZM182.26 29.0591C181.748 29.0591 181.324 28.9391 180.988 28.6991C180.652 28.4431 180.484 28.0671 180.484 27.5711C180.484 27.0431 180.66 26.6591 181.012 26.4191C181.364 26.1631 181.796 26.0351 182.308 26.0351C182.82 26.0351 183.244 26.1631 183.58 26.4191C183.916 26.6591 184.084 27.0271 184.084 27.5231C184.084 28.0511 183.908 28.4431 183.556 28.6991C183.204 28.9391 182.772 29.0591 182.26 29.0591ZM188.545 43.8911C188.081 43.8911 187.569 43.8431 187.009 43.7471C186.449 43.6671 185.905 43.5391 185.377 43.3631C184.849 43.1711 184.393 42.9471 184.009 42.6911L185.929 32.8751L188.161 33.1151C188.577 32.3471 189.113 31.7551 189.769 31.3391C190.425 30.9071 191.177 30.6911 192.025 30.6911C192.841 30.6911 193.489 30.8911 193.969 31.2911C194.465 31.6911 194.817 32.2351 195.025 32.9231C195.249 33.6111 195.361 34.3791 195.361 35.2271C195.361 36.2831 195.217 37.3231 194.929 38.3471C194.657 39.3711 194.241 40.3071 193.681 41.1551C193.121 41.9871 192.409 42.6511 191.545 43.1471C190.697 43.6431 189.697 43.8911 188.545 43.8911ZM188.881 42.4511C189.361 42.4511 189.793 42.3151 190.177 42.0431C190.577 41.7551 190.921 41.3711 191.209 40.8911C191.513 40.3951 191.769 39.8271 191.977 39.1871C192.185 38.5311 192.337 37.8431 192.433 37.1231C192.529 36.3871 192.577 35.6511 192.577 34.9151C192.577 34.1631 192.465 33.5791 192.241 33.1631C192.017 32.7471 191.625 32.5391 191.065 32.5391C190.585 32.5391 190.161 32.6671 189.793 32.9231C189.425 33.1791 189.113 33.5151 188.857 33.9311C188.601 34.3471 188.385 34.8031 188.209 35.2991C188.049 35.7791 187.921 36.2511 187.825 36.7151L186.889 41.7311C187.193 41.9711 187.521 42.1551 187.873 42.2831C188.225 42.3951 188.561 42.4511 188.881 42.4511ZM188.161 33.4271L185.905 33.0431C186.033 32.3871 186.161 31.6671 186.289 30.8831C186.417 30.0831 186.529 29.3071 186.625 28.5551C186.721 27.7871 186.769 27.1231 186.769 26.5631C186.785 26.3711 186.785 26.2031 186.769 26.0591C186.769 25.9151 186.753 25.7791 186.721 25.6511C186.881 25.5391 187.073 25.4591 187.297 25.4111C187.521 25.3471 187.745 25.3151 187.969 25.3151C188.401 25.3151 188.793 25.4431 189.145 25.6991C189.497 25.9391 189.673 26.3791 189.673 27.0191C189.673 27.4831 189.601 28.0671 189.457 28.7711C189.329 29.4591 189.153 30.2111 188.929 31.0271C188.705 31.8271 188.449 32.6271 188.161 33.4271ZM201.206 43.8911C200.294 43.8911 199.502 43.7231 198.83 43.3871C198.174 43.0351 197.67 42.5071 197.318 41.8031C196.966 41.0991 196.79 40.2111 196.79 39.1391C196.79 38.1311 196.926 37.1311 197.198 36.1391C197.486 35.1311 197.91 34.2191 198.47 33.4031C199.03 32.5871 199.742 31.9311 200.606 31.4351C201.486 30.9391 202.518 30.6911 203.702 30.6911C204.326 30.6911 204.886 30.7791 205.382 30.9551C205.878 31.1311 206.27 31.4191 206.558 31.8191C206.846 32.2191 206.99 32.7631 206.99 33.4511C206.99 34.3791 206.71 35.1631 206.15 35.8031C205.606 36.4271 204.878 36.9071 203.966 37.2431C203.054 37.5631 202.046 37.7231 200.942 37.7231C200.734 37.7231 200.502 37.7231 200.246 37.7231C200.006 37.7071 199.806 37.6911 199.646 37.6751C199.63 37.9311 199.614 38.1871 199.598 38.4431C199.582 38.6831 199.574 38.9071 199.574 39.1151C199.574 39.9791 199.734 40.6591 200.054 41.1551C200.374 41.6351 200.958 41.8751 201.806 41.8751C202.494 41.8751 203.11 41.7151 203.654 41.3951C204.198 41.0591 204.622 40.5871 204.926 39.9791C205.15 40.0431 205.302 40.1711 205.382 40.3631C205.462 40.5551 205.502 40.7551 205.502 40.9631C205.502 41.4431 205.334 41.9071 204.998 42.3551C204.662 42.8031 204.174 43.1711 203.534 43.4591C202.894 43.7471 202.118 43.8911 201.206 43.8911ZM199.814 36.4991C200.358 36.4991 200.894 36.4431 201.422 36.3311C201.966 36.2191 202.462 36.0431 202.91 35.8031C203.358 35.5471 203.71 35.2271 203.966 34.8431C204.238 34.4431 204.374 33.9791 204.374 33.4511C204.374 32.9871 204.262 32.6431 204.038 32.4191C203.83 32.1791 203.526 32.0591 203.126 32.0591C202.678 32.0591 202.262 32.2031 201.878 32.4911C201.51 32.7631 201.19 33.1231 200.918 33.5711C200.646 34.0191 200.414 34.4991 200.222 35.0111C200.046 35.5231 199.91 36.0191 199.814 36.4991Z" fill="#BD0265"/>
</g>
<defs>
<filter id="filter0_d_728_1815" x="0" y="0" width="260.99" height="131.864" filterUnits="userSpaceOnUse" color-interpolation-filters="sRGB">
<feFlood flood-opacity="0" result="BackgroundImageFix"/>
<feColorMatrix in="SourceAlpha" type="matrix" values="0 0 0 0 0 0 0 0 0 0 0 0 0 0 0 0 0 0 127 0" result="hardAlpha"/>
<feOffset dy="30"/>
<feGaussianBlur stdDeviation="27"/>
<feComposite in2="hardAlpha" operator="out"/>
<feColorMatrix type="matrix" values="0 0 0 0 0 0 0 0 0 0 0 0 0 0 0 0 0 0 0.25 0"/>
<feBlend mode="normal" in2="BackgroundImageFix" result="effect1_dropShadow_728_1815"/>
<feBlend mode="normal" in="SourceGraphic" in2="effect1_dropShadow_728_1815" result="shape"/>
</filter>
<linearGradient id="paint0_linear_728_1815" x1="55.4993" y1="46.8829" x2="76.734" y2="24.2605" gradientUnits="userSpaceOnUse">
<stop stop-color="#7F0157"/>
<stop offset="1" stop-color="#F20171"/>
</linearGradient>
</defs>
</svg>
