<svg width="261" height="132" viewBox="0 0 261 132" fill="none" xmlns="http://www.w3.org/2000/svg">
<g filter="url(#filter0_d_134_2399)">
<path d="M56.6752 43.4592L54 47.8646L56.8359 46.7766L59.2718 43.7079L63.0417 43.4619L64.9365 40.3451L64.5901 37.4942L67.6189 37.1263L70.4942 33.7111L69.8942 30.7402L73.3194 30.0484L77.7019 24.0098C69.9048 23.8174 65.2229 26.393 56.0646 37.9136L56.6752 43.4592Z" fill="url(#paint0_linear_134_2399)"/>
<path d="M94.139 27.7863L93.299 29.7063C92.883 29.5623 92.499 29.4423 92.147 29.3463C91.811 29.2503 91.467 29.1783 91.115 29.1303C90.763 29.0663 90.331 29.0343 89.819 29.0343C88.891 29.0343 88.051 29.2983 87.299 29.8263C86.563 30.3383 85.979 31.0663 85.547 32.0103C85.115 32.9383 84.899 34.0423 84.899 35.3223C84.899 36.1543 85.003 36.9383 85.211 37.6743C85.419 38.4103 85.723 39.0663 86.123 39.6423C86.539 40.2183 87.035 40.6663 87.611 40.9863C88.203 41.3063 88.875 41.4663 89.627 41.4663C90.379 41.4663 91.043 41.4023 91.619 41.2743C92.211 41.1303 92.739 40.9543 93.203 40.7463L94.235 42.7383C93.851 42.9463 93.395 43.1303 92.867 43.2903C92.339 43.4343 91.803 43.5463 91.259 43.6263C90.715 43.7063 90.219 43.7463 89.771 43.7463C88.507 43.7463 87.395 43.5303 86.435 43.0983C85.475 42.6663 84.667 42.0663 84.011 41.2983C83.371 40.5143 82.891 39.6183 82.571 38.6103C82.251 37.5863 82.091 36.4983 82.091 35.3463C82.091 34.0983 82.267 32.9543 82.619 31.9143C82.987 30.8583 83.507 29.9463 84.179 29.1783C84.867 28.4103 85.691 27.8183 86.651 27.4023C87.611 26.9703 88.691 26.7543 89.891 26.7543C90.211 26.7543 90.619 26.7863 91.115 26.8503C91.611 26.9143 92.123 27.0263 92.651 27.1863C93.195 27.3303 93.691 27.5303 94.139 27.7863ZM101.28 43.7223C100.048 43.7223 98.9841 43.4663 98.0881 42.9543C97.1921 42.4423 96.5041 41.7303 96.0241 40.8183C95.5441 39.8903 95.3041 38.8183 95.3041 37.6023C95.3041 36.3543 95.5521 35.2743 96.0481 34.3623C96.5441 33.4503 97.2401 32.7383 98.1361 32.2263C99.0481 31.7143 100.112 31.4583 101.328 31.4583C102.56 31.4583 103.616 31.7143 104.496 32.2263C105.392 32.7383 106.088 33.4503 106.584 34.3623C107.08 35.2743 107.328 36.3463 107.328 37.5783C107.328 38.7943 107.072 39.8663 106.56 40.7943C106.064 41.7223 105.368 42.4423 104.472 42.9543C103.576 43.4503 102.512 43.7063 101.28 43.7223ZM101.304 41.3943C101.976 41.3943 102.552 41.2263 103.032 40.8903C103.512 40.5543 103.88 40.0983 104.136 39.5223C104.408 38.9463 104.544 38.2983 104.544 37.5783C104.544 36.8423 104.416 36.1863 104.16 35.6103C103.904 35.0343 103.536 34.5863 103.056 34.2663C102.576 33.9303 102 33.7623 101.328 33.7623C100.688 33.7623 100.12 33.9303 99.6241 34.2663C99.1281 34.6023 98.7441 35.0583 98.4721 35.6343C98.2161 36.2103 98.0801 36.8583 98.0641 37.5783C98.0641 38.3143 98.1921 38.9703 98.4481 39.5463C98.7041 40.1223 99.0801 40.5783 99.5761 40.9143C100.072 41.2343 100.648 41.3943 101.304 41.3943ZM111.4 39.9783C111.4 40.2503 111.464 40.5063 111.592 40.7463C111.736 40.9863 111.936 41.1863 112.192 41.3463C112.448 41.4903 112.752 41.5623 113.104 41.5623C113.616 41.5623 114.112 41.4423 114.592 41.2023C115.072 40.9623 115.52 40.6343 115.936 40.2183V38.1303H113.32C112.712 38.1303 112.24 38.3223 111.904 38.7063C111.568 39.0903 111.4 39.5143 111.4 39.9783ZM110.416 34.6983L109.696 32.4903C110 32.2823 110.408 32.1063 110.92 31.9623C111.432 31.8023 111.952 31.6823 112.48 31.6023C113.008 31.5063 113.432 31.4583 113.752 31.4583C114.664 31.4583 115.488 31.6423 116.224 32.0103C116.96 32.3623 117.544 32.8583 117.976 33.4983C118.424 34.1383 118.648 34.8503 118.648 35.6343V43.4103H116.824L116.416 42.2343C116 42.6343 115.504 42.9783 114.928 43.2663C114.352 43.5543 113.76 43.6983 113.152 43.6983C111.76 43.6983 110.728 43.3543 110.056 42.6663C109.384 41.9783 109.048 41.0823 109.048 39.9783C109.048 38.8103 109.448 37.9143 110.248 37.2903C111.048 36.6663 112.088 36.3463 113.368 36.3303H115.912V36.2583C115.896 35.5703 115.728 35.0103 115.408 34.5783C115.088 34.1303 114.552 33.9063 113.8 33.9063C113.192 33.9063 112.584 33.9943 111.976 34.1703C111.384 34.3303 110.864 34.5063 110.416 34.6983ZM129.761 40.6263L130.553 42.5703C130.217 42.8103 129.793 43.0183 129.281 43.1943C128.769 43.3703 128.273 43.4983 127.793 43.5783C127.313 43.6743 126.905 43.7223 126.569 43.7223C125.353 43.7223 124.297 43.4663 123.401 42.9543C122.505 42.4423 121.809 41.7303 121.313 40.8183C120.833 39.8903 120.593 38.8183 120.593 37.6023C120.593 36.3703 120.841 35.2983 121.337 34.3863C121.833 33.4583 122.529 32.7383 123.425 32.2263C124.337 31.7143 125.401 31.4583 126.617 31.4583C126.937 31.4583 127.337 31.5063 127.817 31.6023C128.297 31.6823 128.785 31.8103 129.281 31.9863C129.793 32.1623 130.233 32.3783 130.601 32.6343L129.809 34.5543C129.281 34.3303 128.769 34.1463 128.273 34.0023C127.777 33.8423 127.225 33.7623 126.617 33.7623C125.977 33.7623 125.409 33.9303 124.913 34.2663C124.417 34.6023 124.033 35.0583 123.761 35.6343C123.505 36.2103 123.369 36.8583 123.353 37.5783C123.353 38.3143 123.481 38.9703 123.737 39.5463C123.993 40.1223 124.369 40.5783 124.865 40.9143C125.361 41.2343 125.937 41.3943 126.593 41.3943C127.201 41.3943 127.745 41.3303 128.225 41.2023C128.721 41.0583 129.233 40.8663 129.761 40.6263ZM135.444 35.2743L135.036 33.1623C135.484 32.7943 135.956 32.4823 136.452 32.2263C136.964 31.9543 137.484 31.7463 138.012 31.6023C138.54 31.4583 139.044 31.3863 139.524 31.3863C140.484 31.3863 141.236 31.5863 141.78 31.9863C142.34 32.3863 142.74 32.9303 142.98 33.6183C143.236 34.2903 143.364 35.0583 143.364 35.9223V43.4103H140.676V36.0903C140.676 35.3223 140.532 34.7223 140.244 34.2903C139.956 33.8583 139.492 33.6423 138.852 33.6423C138.468 33.6423 138.068 33.7223 137.652 33.8823C137.252 34.0423 136.868 34.2503 136.5 34.5063C136.132 34.7623 135.78 35.0183 135.444 35.2743ZM135.444 43.4103H132.78V26.7303L135.444 26.4663V43.4103Z" fill="#F6F6F6"/>
<path d="M149.543 43.9383C148.551 43.9383 147.703 43.7863 146.999 43.4823C146.311 43.1943 145.783 42.7863 145.415 42.2583C145.047 41.7303 144.863 41.1143 144.863 40.4103C144.863 39.8183 144.975 39.3063 145.199 38.8743C145.439 38.4423 145.759 38.1063 146.159 37.8663C146.559 37.6103 147.007 37.4823 147.503 37.4823C147.855 37.4823 148.159 37.5463 148.415 37.6743C148.687 37.8023 148.887 37.9783 149.015 38.2023C149.159 38.4103 149.231 38.6663 149.231 38.9703C149.231 39.0503 149.223 39.1383 149.207 39.2343C149.191 39.3303 149.175 39.4183 149.159 39.4983C149.095 39.4663 149.015 39.4503 148.919 39.4503C148.839 39.4343 148.759 39.4263 148.679 39.4263C148.359 39.4263 148.087 39.5383 147.863 39.7623C147.639 39.9703 147.527 40.2903 147.527 40.7223C147.527 41.2823 147.751 41.7063 148.199 41.9943C148.663 42.2663 149.231 42.4023 149.903 42.4023C150.415 42.4023 150.895 42.2983 151.343 42.0903C151.791 41.8823 152.151 41.5783 152.423 41.1783C152.711 40.7783 152.855 40.2823 152.855 39.6903C152.855 39.1943 152.727 38.7463 152.471 38.3463C152.231 37.9463 151.919 37.5703 151.535 37.2183C151.167 36.8663 150.767 36.5223 150.335 36.1863C149.855 35.8023 149.391 35.4103 148.943 35.0103C148.495 34.5943 148.119 34.1223 147.815 33.5943C147.527 33.0663 147.383 32.4503 147.383 31.7463C147.383 31.0103 147.543 30.3543 147.863 29.7783C148.183 29.1863 148.607 28.6983 149.135 28.3143C149.679 27.9143 150.295 27.6103 150.983 27.4023C151.687 27.1943 152.415 27.0903 153.167 27.0903C153.967 27.0903 154.663 27.2023 155.255 27.4263C155.847 27.6343 156.303 27.9383 156.623 28.3383C156.959 28.7383 157.127 29.2103 157.127 29.7543C157.127 30.2503 157.031 30.6903 156.839 31.0743C156.647 31.4583 156.383 31.7623 156.047 31.9863C155.727 32.1943 155.367 32.2983 154.967 32.2983C154.663 32.2983 154.399 32.2503 154.175 32.1543C153.951 32.0583 153.791 31.9303 153.695 31.7703C153.887 31.6583 154.063 31.4583 154.223 31.1703C154.383 30.8823 154.463 30.5703 154.463 30.2343C154.463 29.7383 154.311 29.3463 154.007 29.0583C153.703 28.7543 153.207 28.6023 152.519 28.6023C151.815 28.6023 151.223 28.8103 150.743 29.2263C150.279 29.6423 150.047 30.2023 150.047 30.9063C150.047 31.4023 150.175 31.8583 150.431 32.2743C150.687 32.6743 151.015 33.0503 151.415 33.4023C151.831 33.7383 152.255 34.0743 152.687 34.4103C153.167 34.7623 153.623 35.1463 154.055 35.5623C154.503 35.9783 154.863 36.4583 155.135 37.0023C155.423 37.5303 155.567 38.1543 155.567 38.8743C155.567 39.6743 155.391 40.3943 155.039 41.0343C154.703 41.6583 154.239 42.1863 153.647 42.6183C153.071 43.0503 152.423 43.3783 151.703 43.6023C150.983 43.8263 150.263 43.9383 149.543 43.9383ZM161.661 43.8903C160.269 43.8903 159.229 43.4983 158.541 42.7143C157.853 41.9143 157.509 40.7223 157.509 39.1383C157.509 38.0983 157.653 37.0823 157.941 36.0903C158.229 35.0823 158.653 34.1783 159.213 33.3783C159.789 32.5623 160.493 31.9143 161.325 31.4343C162.173 30.9383 163.165 30.6903 164.301 30.6903C164.957 30.6903 165.533 30.7863 166.029 30.9783C166.541 31.1543 166.941 31.4263 167.229 31.7943C167.517 32.1623 167.661 32.6343 167.661 33.2103C167.661 33.9303 167.453 34.4583 167.037 34.7943C166.621 35.1303 166.157 35.2983 165.645 35.2983C165.501 35.2983 165.325 35.2823 165.117 35.2503C164.925 35.2023 164.773 35.1063 164.661 34.9623C164.741 34.7223 164.813 34.4503 164.877 34.1463C164.957 33.8263 164.997 33.5543 164.997 33.3303C164.997 32.9303 164.901 32.6263 164.709 32.4183C164.533 32.2103 164.253 32.1063 163.869 32.1063C163.389 32.1063 162.957 32.2663 162.573 32.5863C162.189 32.9063 161.853 33.3303 161.565 33.8583C161.293 34.3703 161.061 34.9383 160.869 35.5623C160.677 36.1863 160.533 36.8023 160.437 37.4103C160.341 38.0183 160.293 38.5623 160.293 39.0423C160.293 39.8263 160.445 40.4983 160.749 41.0583C161.069 41.6023 161.645 41.8743 162.477 41.8743C163.213 41.8743 163.829 41.6583 164.325 41.2263C164.821 40.7943 165.173 40.2423 165.381 39.5703C165.685 39.6663 165.901 39.8263 166.029 40.0503C166.157 40.2583 166.221 40.5143 166.221 40.8183C166.221 41.3783 166.021 41.8903 165.621 42.3543C165.237 42.8183 164.701 43.1863 164.013 43.4583C163.325 43.7463 162.541 43.8903 161.661 43.8903ZM168.195 43.6983L170.595 31.1703L172.875 30.8823L172.587 33.0423C172.891 32.3543 173.347 31.7943 173.955 31.3623C174.563 30.9143 175.243 30.6903 175.995 30.6903C176.779 30.6903 177.347 30.9223 177.699 31.3863C178.067 31.8503 178.251 32.4183 178.251 33.0903C178.251 33.8903 178.035 34.5783 177.603 35.1543C177.171 35.7303 176.603 36.0183 175.899 36.0183C175.707 36.0183 175.507 35.9863 175.299 35.9223C175.107 35.8583 174.955 35.7463 174.843 35.5863C175.051 35.3143 175.219 34.9863 175.347 34.6023C175.475 34.2023 175.539 33.8423 175.539 33.5223C175.539 33.2183 175.467 32.9783 175.323 32.8023C175.195 32.6263 174.979 32.5383 174.675 32.5383C174.291 32.5383 173.955 32.6823 173.667 32.9703C173.379 33.2423 173.139 33.5943 172.947 34.0263C172.755 34.4583 172.595 34.9223 172.467 35.4183C172.355 35.8983 172.259 36.3383 172.179 36.7383L171.003 43.4103L168.195 43.6983ZM179.836 43.8903C179.324 43.8903 178.924 43.7463 178.636 43.4583C178.348 43.1703 178.204 42.7703 178.204 42.2583C178.204 42.0663 178.22 41.8343 178.252 41.5623C178.284 41.2903 178.324 41.0103 178.372 40.7223C178.42 40.4183 178.468 40.1383 178.516 39.8823C178.58 39.6103 178.628 39.3783 178.66 39.1863L180.292 31.1703L183.028 30.8823L181.012 40.9143C180.996 41.0423 180.972 41.2103 180.94 41.4183C180.908 41.6103 180.892 41.7783 180.892 41.9223C180.892 42.1623 180.948 42.3543 181.06 42.4983C181.188 42.6423 181.372 42.7223 181.612 42.7383C181.516 43.1383 181.292 43.4263 180.94 43.6023C180.604 43.7943 180.236 43.8903 179.836 43.8903ZM182.26 29.0583C181.748 29.0583 181.324 28.9383 180.988 28.6983C180.652 28.4423 180.484 28.0663 180.484 27.5703C180.484 27.0423 180.66 26.6583 181.012 26.4183C181.364 26.1623 181.796 26.0343 182.308 26.0343C182.82 26.0343 183.244 26.1623 183.58 26.4183C183.916 26.6583 184.084 27.0263 184.084 27.5223C184.084 28.0503 183.908 28.4423 183.556 28.6983C183.204 28.9383 182.772 29.0583 182.26 29.0583ZM188.545 43.8903C188.081 43.8903 187.569 43.8423 187.009 43.7463C186.449 43.6663 185.905 43.5383 185.377 43.3623C184.849 43.1703 184.393 42.9463 184.009 42.6903L185.929 32.8743L188.161 33.1143C188.577 32.3463 189.113 31.7543 189.769 31.3383C190.425 30.9063 191.177 30.6903 192.025 30.6903C192.841 30.6903 193.489 30.8903 193.969 31.2903C194.465 31.6903 194.817 32.2343 195.025 32.9223C195.249 33.6103 195.361 34.3783 195.361 35.2263C195.361 36.2823 195.217 37.3223 194.929 38.3463C194.657 39.3703 194.241 40.3063 193.681 41.1543C193.121 41.9863 192.409 42.6503 191.545 43.1463C190.697 43.6423 189.697 43.8903 188.545 43.8903ZM188.881 42.4503C189.361 42.4503 189.793 42.3143 190.177 42.0423C190.577 41.7543 190.921 41.3703 191.209 40.8903C191.513 40.3943 191.769 39.8263 191.977 39.1863C192.185 38.5303 192.337 37.8423 192.433 37.1223C192.529 36.3863 192.577 35.6503 192.577 34.9143C192.577 34.1623 192.465 33.5783 192.241 33.1623C192.017 32.7463 191.625 32.5383 191.065 32.5383C190.585 32.5383 190.161 32.6663 189.793 32.9223C189.425 33.1783 189.113 33.5143 188.857 33.9303C188.601 34.3463 188.385 34.8023 188.209 35.2983C188.049 35.7783 187.921 36.2503 187.825 36.7143L186.889 41.7303C187.193 41.9703 187.521 42.1543 187.873 42.2823C188.225 42.3943 188.561 42.4503 188.881 42.4503ZM188.161 33.4263L185.905 33.0423C186.033 32.3863 186.161 31.6663 186.289 30.8823C186.417 30.0823 186.529 29.3063 186.625 28.5543C186.721 27.7863 186.769 27.1223 186.769 26.5623C186.785 26.3703 186.785 26.2023 186.769 26.0583C186.769 25.9143 186.753 25.7783 186.721 25.6503C186.881 25.5383 187.073 25.4583 187.297 25.4103C187.521 25.3463 187.745 25.3143 187.969 25.3143C188.401 25.3143 188.793 25.4423 189.145 25.6983C189.497 25.9383 189.673 26.3783 189.673 27.0183C189.673 27.4823 189.601 28.0663 189.457 28.7703C189.329 29.4583 189.153 30.2103 188.929 31.0263C188.705 31.8263 188.449 32.6263 188.161 33.4263ZM201.206 43.8903C200.294 43.8903 199.502 43.7223 198.83 43.3863C198.174 43.0343 197.67 42.5063 197.318 41.8023C196.966 41.0983 196.79 40.2103 196.79 39.1383C196.79 38.1303 196.926 37.1303 197.198 36.1383C197.486 35.1303 197.91 34.2183 198.47 33.4023C199.03 32.5863 199.742 31.9303 200.606 31.4343C201.486 30.9383 202.518 30.6903 203.702 30.6903C204.326 30.6903 204.886 30.7783 205.382 30.9543C205.878 31.1303 206.27 31.4183 206.558 31.8183C206.846 32.2183 206.99 32.7623 206.99 33.4503C206.99 34.3783 206.71 35.1623 206.15 35.8023C205.606 36.4263 204.878 36.9063 203.966 37.2423C203.054 37.5623 202.046 37.7223 200.942 37.7223C200.734 37.7223 200.502 37.7223 200.246 37.7223C200.006 37.7063 199.806 37.6903 199.646 37.6743C199.63 37.9303 199.614 38.1863 199.598 38.4423C199.582 38.6823 199.574 38.9063 199.574 39.1143C199.574 39.9783 199.734 40.6583 200.054 41.1543C200.374 41.6343 200.958 41.8743 201.806 41.8743C202.494 41.8743 203.11 41.7143 203.654 41.3943C204.198 41.0583 204.622 40.5863 204.926 39.9783C205.15 40.0423 205.302 40.1703 205.382 40.3623C205.462 40.5543 205.502 40.7543 205.502 40.9623C205.502 41.4423 205.334 41.9063 204.998 42.3543C204.662 42.8023 204.174 43.1703 203.534 43.4583C202.894 43.7463 202.118 43.8903 201.206 43.8903ZM199.814 36.4983C200.358 36.4983 200.894 36.4423 201.422 36.3303C201.966 36.2183 202.462 36.0423 202.91 35.8023C203.358 35.5463 203.71 35.2263 203.966 34.8423C204.238 34.4423 204.374 33.9783 204.374 33.4503C204.374 32.9863 204.262 32.6423 204.038 32.4183C203.83 32.1783 203.526 32.0583 203.126 32.0583C202.678 32.0583 202.262 32.2023 201.878 32.4903C201.51 32.7623 201.19 33.1223 200.918 33.5703C200.646 34.0183 200.414 34.4983 200.222 35.0103C200.046 35.5223 199.91 36.0183 199.814 36.4983Z" fill="#FF5B03"/>
</g>
<defs>
<filter id="filter0_d_134_2399" x="0" y="0" width="260.99" height="131.865" filterUnits="userSpaceOnUse" color-interpolation-filters="sRGB">
<feFlood flood-opacity="0" result="BackgroundImageFix"/>
<feColorMatrix in="SourceAlpha" type="matrix" values="0 0 0 0 0 0 0 0 0 0 0 0 0 0 0 0 0 0 127 0" result="hardAlpha"/>
<feOffset dy="30"/>
<feGaussianBlur stdDeviation="27"/>
<feComposite in2="hardAlpha" operator="out"/>
<feColorMatrix type="matrix" values="0 0 0 0 0 0 0 0 0 0 0 0 0 0 0 0 0 0 0.25 0"/>
<feBlend mode="normal" in2="BackgroundImageFix" result="effect1_dropShadow_134_2399"/>
<feBlend mode="normal" in="SourceGraphic" in2="effect1_dropShadow_134_2399" result="shape"/>
</filter>
<linearGradient id="paint0_linear_134_2399" x1="55.4993" y1="46.8828" x2="76.734" y2="24.2604" gradientUnits="userSpaceOnUse">
<stop stop-color="#FF5B03"/>
<stop offset="1" stop-color="#FF8F52"/>
</linearGradient>
</defs>
</svg>
