<svg width="261" height="132" viewBox="0 -12 261 144" fill="none" xmlns="http://www.w3.org/2000/svg">
<path d="M56.6752 43.4592L54 47.8646L56.8359 46.7766L59.2718 43.7079L63.0417 43.4619L64.9365 40.3451L64.5901 37.4942L67.6189 37.1263L70.4942 33.7111L69.8942 30.7402L73.3194 30.0484L77.7019 24.0098C69.9048 23.8174 65.2229 26.393 56.0646 37.9136L56.6752 43.4592Z" fill="url(#paint0_linear_134_2399)"/>
<path d="M94.139 27.7863L93.299 29.7063C92.883 29.5623 92.499 29.4423 92.147 29.3463C91.811 29.2503 91.467 29.1783 91.115 29.1303C90.763 29.0663 90.331 29.0343 89.819 29.0343C88.891 29.0343 88.051 29.2983 87.299 29.8263C86.563 30.3383 85.979 31.0663 85.547 32.0103C85.115 32.9383 84.899 34.0423 84.899 35.3223C84.899 36.1543 85.003 36.9383 85.211 37.6743C85.419 38.4103 85.723 39.0663 86.123 39.6423C86.539 40.2183 87.035 40.6663 87.611 40.9863C88.203 41.3063 88.875 41.4663 89.627 41.4663C90.379 41.4663 91.043 41.4023 91.619 41.2743C92.211 41.1303 92.739 40.9543 93.203 40.7463L94.235 42.7383C93.851 42.9463 93.395 43.1303 92.867 43.2903C92.339 43.4343 91.803 43.5463 91.259 43.6263C90.715 43.7063 90.219 43.7463 89.771 43.7463C88.507 43.7463 87.395 43.5303 86.435 43.0983C85.475 42.6663 84.667 42.0663 84.011 41.2983C83.371 40.5143 82.891 39.6183 82.571 38.6103C82.251 37.5863 82.091 36.4983 82.091 35.3463C82.091 34.0983 82.267 32.9543 82.619 31.9143C82.987 30.8583 83.507 29.9463 84.179 29.1783C84.867 28.4103 85.691 27.8183 86.651 27.4023C87.611 26.9703 88.691 26.7543 89.891 26.7543C90.211 26.7543 90.619 26.7863 91.115 26.8503C91.611 26.9143 92.123 27.0263 92.651 27.1863C93.195 27.3303 93.691 27.5303 94.139 27.7863ZM101.28 43.7223C100.048 43.7223 98.9841 43.4663 98.0881 42.9543C97.1921 42.4423 96.5041 41.7303 96.0241 40.8183C95.5441 39.8903 95.3041 38.8183 95.3041 37.6023C95.3041 36.3543 95.5521 35.2743 96.0481 34.3623C96.5441 33.4503 97.2401 32.7383 98.1361 32.2263C99.0481 31.7143 100.112 31.4583 101.328 31.4583C102.56 31.4583 103.616 31.7143 104.496 32.2263C105.392 32.7383 106.088 33.4503 106.584 34.3623C107.08 35.2743 107.328 36.3463 107.328 37.5783C107.328 38.7943 107.072 39.8663 106.56 40.7943C106.064 41.7223 105.368 42.4423 104.472 42.9543C103.576 43.4503 102.512 43.7063 101.28 43.7223ZM101.304 41.3943C101.976 41.3943 102.552 41.2263 103.032 40.8903C103.512 40.5543 103.88 40.0983 104.136 39.5223C104.408 38.9463 104.544 38.2983 104.544 37.5783C104.544 36.8423 104.416 36.1863 104.16 35.6103C103.904 35.0343 103.536 34.5863 103.056 34.2663C102.576 33.9303 102 33.7623 101.328 33.7623C100.688 33.7623 100.12 33.9303 99.6241 34.2663C99.1281 34.6023 98.7441 35.0583 98.4721 35.6343C98.2161 36.2103 98.0801 36.8583 98.0641 37.5783C98.0641 38.3143 98.1921 38.9703 98.4481 39.5463C98.7041 40.1223 99.0801 40.5783 99.5761 40.9143C100.072 41.2343 100.648 41.3943 101.304 41.3943ZM111.4 39.9783C111.4 40.2503 111.464 40.5063 111.592 40.7463C111.736 40.9863 111.936 41.1863 112.192 41.3463C112.448 41.4903 112.752 41.5623 113.104 41.5623C113.616 41.5623 114.112 41.4423 114.592 41.2023C115.072 40.9623 115.52 40.6343 115.936 40.2183V38.1303H113.32C112.712 38.1303 112.24 38.3223 111.904 38.7063C111.568 39.0903 111.4 39.5143 111.4 39.9783ZM110.416 34.6983L109.696 32.4903C110 32.2823 110.408 32.1063 110.92 31.9623C111.432 31.8023 111.952 31.6823 112.48 31.6023C113.008 31.5063 113.432 31.4583 113.752 31.4583C114.664 31.4583 115.488 31.6423 116.224 32.0103C116.96 32.3623 117.544 32.8583 117.976 33.4983C118.424 34.1383 118.648 34.8503 118.648 35.6343V43.4103H116.824L116.416 42.2343C116 42.6343 115.504 42.9783 114.928 43.2663C114.352 43.5543 113.76 43.6983 113.152 43.6983C111.76 43.6983 110.728 43.3543 110.056 42.6663C109.384 41.9783 109.048 41.0823 109.048 39.9783C109.048 38.8103 109.448 37.9143 110.248 37.2903C111.048 36.6663 112.088 36.3463 113.368 36.3303H115.912V36.2583C115.896 35.5703 115.728 35.0103 115.408 34.5783C115.088 34.1303 114.552 33.9063 113.8 33.9063C113.192 33.9063 112.584 33.9943 111.976 34.1703C111.384 34.3303 110.864 34.5063 110.416 34.6983ZM129.761 40.6263L130.553 42.5703C130.217 42.8103 129.793 43.0183 129.281 43.1943C128.769 43.3703 128.273 43.4983 127.793 43.5783C127.313 43.6743 126.905 43.7223 126.569 43.7223C125.353 43.7223 124.297 43.4663 123.401 42.9543C122.505 42.4423 121.809 41.7303 121.313 40.8183C120.833 39.8903 120.593 38.8183 120.593 37.6023C120.593 36.3703 120.841 35.2983 121.337 34.3863C121.833 33.4583 122.529 32.7383 123.425 32.2263C124.337 31.7143 125.401 31.4583 126.617 31.4583C126.937 31.4583 127.337 31.5063 127.817 31.6023C128.297 31.6823 128.785 31.8103 129.281 31.9863C129.793 32.1623 130.233 32.3783 130.601 32.6343L129.809 34.5543C129.281 34.3303 128.769 34.1463 128.273 34.0023C127.777 33.8423 127.225 33.7623 126.617 33.7623C125.977 33.7623 125.409 33.9303 124.913 34.2663C124.417 34.6023 124.033 35.0583 123.761 35.6343C123.505 36.2103 123.369 36.8583 123.353 37.5783C123.353 38.3143 123.481 38.9703 123.737 39.5463C123.993 40.1223 124.369 40.5783 124.865 40.9143C125.361 41.2343 125.937 41.3943 126.593 41.3943C127.201 41.3943 127.745 41.3303 128.225 41.2023C128.721 41.0583 129.233 40.8663 129.761 40.6263ZM135.444 35.2743L135.036 33.1623C135.484 32.7943 135.956 32.4823 136.452 32.2263C136.964 31.9543 137.484 31.7463 138.012 31.6023C138.54 31.4583 139.044 31.3863 139.524 31.3863C140.484 31.3863 141.236 31.5863 141.78 31.9863C142.34 32.3863 142.74 32.9303 142.98 33.6183C143.236 34.2903 143.364 35.0583 143.364 35.9223V43.4103H140.676V36.0903C140.676 35.3223 140.532 34.7223 140.244 34.2903C139.956 33.8583 139.492 33.6423 138.852 33.6423C138.468 33.6423 138.068 33.7223 137.652 33.8823C137.252 34.0423 136.868 34.2503 136.5 34.5063C136.132 34.7623 135.78 35.0183 135.444 35.2743ZM135.444 43.4103H132.78V26.7303L135.444 26.4663V43.4103Z" fill="#000000"/>
<path d="M149.543 43.9383C148.551 43.9383 147.703 43.7863 146.999 43.4823C146.311 43.1943 145.783 42.7863 145.415 42.2583C145.047 41.7303 144.863 41.1143 144.863 40.4103C144.863 39.8183 144.975 39.3063 145.199 38.8743C145.439 38.4423 145.759 38.1063 146.159 37.8663C146.559 37.6103 147.007 37.4823 147.503 37.4823C147.855 37.4823 148.159 37.5463 148.415 37.6743C148.687 37.8023 148.887 37.9783 149.015 38.2023C149.159 38.4103 149.231 38.6663 149.231 38.9703C149.231 39.0503 149.223 39.1383 149.207 39.2343C149.191 39.3303 149.175 39.4183 149.159 39.4983C149.095 39.4663 149.015 39.4503 148.919 39.4503C148.839 39.4343 148.759 39.4263 148.679 39.4263C148.359 39.4263 148.087 39.5383 147.863 39.7623C147.639 39.9703 147.527 40.2903 147.527 40.7223C147.527 41.2823 147.751 41.7063 148.199 41.9943C148.663 42.2663 149.231 42.4023 149.903 42.4023C150.415 42.4023 150.895 42.2983 151.343 42.0903C151.791 41.8823 152.151 41.5783 152.423 41.1783C152.711 40.7783 152.855 40.2823 152.855 39.6903C152.855 39.1943 152.727 38.7463 152.471 38.3463C152.231 37.9463 151.919 37.5703 151.535 37.2183C151.167 36.8663 150.767 36.5223 150.335 36.1863C149.855 35.8023 149.391 35.4103 148.943 35.0103C148.495 34.5943 148.119 34.1223 147.815 33.5943C147.527 33.0663 147.383 32.4503 147.383 31.7463C147.383 31.0103 147.543 30.3543 147.863 29.7783C148.183 29.1863 148.607 28.6983 149.135 28.3143C149.679 27.9143 150.295 27.6103 150.983 27.4023C151.687 27.1943 152.415 27.0903 153.167 27.0903C153.967 27.0903 154.663 27.2023 155.255 27.4263C155.847 27.6343 156.303 27.9383 156.623 28.3383C156.959 28.7383 157.127 29.2103 157.127 29.7543C157.127 30.2503 157.031 30.6903 156.839 31.0743C156.647 31.4583 156.383 31.7623 156.047 31.9863C155.727 32.1943 155.367 32.2983 154.967 32.2983C154.663 32.2983 154.399 32.2503 154.175 32.1543C153.951 32.0583 153.791 31.9303 153.695 31.7703C153.887 31.6583 154.063 31.4583 154.223 31.1703C154.383 30.8823 154.463 30.5703 154.463 30.2343C154.463 29.7383 154.311 29.3463 154.007 29.0583C153.703 28.7543 153.207 28.6023 152.519 28.6023C151.815 28.6023 151.223 28.8103 150.743 29.2263C150.279 29.6423 150.047 30.2023 150.047 30.9063C150.047 31.4023 150.175 31.8583 150.431 32.2743C150.687 32.6743 151.015 33.0503 151.415 33.4023C151.831 33.7383 152.255 34.0743 152.687 34.4103C153.167 34.7623 153.623 35.1463 154.055 35.5623C154.503 35.9783 154.863 36.4583 155.135 37.0023C155.423 37.5303 155.567 38.1543 155.567 38.8743C155.567 39.6743 155.391 40.3943 155.039 41.0343C154.703 41.6583 154.239 42.1863 153.647 42.6183C153.071 43.0503 152.423 43.3783 151.703 43.6023C150.983 43.8263 150.263 43.9383 149.543 43.9383ZM161.661 43.8903C160.269 43.8903 159.229 43.4983 158.541 42.7143C157.853 41.9143 157.509 40.7223 157.509 39.1383C157.509 38.0983 157.653 37.0823 157.941 36.0903C158.229 35.0823 158.653 34.1783 159.213 33.3783C159.789 32.5623 160.493 31.9143 161.325 31.4343C162.173 30.9383 163.165 30.6903 164.301 30.6903C164.957 30.6903 165.533 30.7863 166.029 30.9783C166.541 31.1543 166.941 31.4263 167.229 31.7943C167.517 32.1623 167.661 32.6343 167.661 33.2103C167.661 33.9303 167.453 34.4583 167.037 34.7943C166.621 35.1303 166.157 35.2983 165.645 35.2983C165.501 35.2983 165.325 35.2823 165.117 35.2503C164.925 35.2023 164.773 35.1063 164.661 34.9623C164.741 34.7223 164.813 34.4503 164.877 34.1463C164.957 33.8263 164.997 33.5543 164.997 33.3303C164.997 32.9303 164.901 32.6263 164.709 32.4183C164.533 32.2103 164.253 32.1063 163.869 32.1063C163.389 32.1063 162.957 32.2663 162.573 32.5863C162.189 32.9063 161.853 33.3303 161.565 33.8583C161.293 34.3703 161.061 34.9383 160.869 35.5623C160.677 36.1863 160.533 36.8023 160.437 37.4103C160.341 38.0183 160.293 38.5623 160.293 39.0423C160.293 39.8263 160.445 40.4983 160.749 41.0583C161.069 41.6023 161.645 41.8743 162.477 41.8743C163.213 41.6583 163.829 41.2263 164.325 40.7943C164.821 40.3623 165.173 39.8103 165.381 39.1383C165.685 39.2343 165.901 39.3943 166.029 39.6183C166.157 39.8263 166.221 40.0823 166.221 40.3863C166.221 40.9463 166.021 41.4583 165.621 41.9223C165.237 42.3863 164.701 42.7543 164.013 43.0263C163.325 43.3143 162.541 43.4583 161.661 43.4583ZM168.195 43.2663L170.595 30.7383L172.875 30.4503L172.587 32.6103C172.891 31.9223 173.347 31.3623 173.955 30.9303C174.563 30.4823 175.243 30.2583 175.995 30.2583C176.779 30.2583 177.347 30.4903 177.699 30.9543C178.067 31.4183 178.251 31.9863 178.251 32.6583C178.251 33.4583 178.035 34.1463 177.603 34.7223C177.171 35.2983 176.603 35.5863 175.899 35.5863C175.707 35.5863 175.507 35.5543 175.299 35.4903C175.107 35.4263 174.955 35.3143 174.843 35.1543C175.051 34.8823 175.219 34.5543 175.347 34.1703C175.475 33.7703 175.539 33.4103 175.539 33.0903C175.539 32.7863 175.467 32.5463 175.323 32.3703C175.195 32.1943 174.979 32.1063 174.675 32.1063C174.291 32.1063 173.955 32.2503 173.667 32.5383C173.379 32.8103 173.139 33.1623 172.947 33.5943C172.755 34.0263 172.595 34.4903 172.467 34.9863C172.355 35.4663 172.259 35.9063 172.179 36.3063L171.003 42.9783L168.195 43.2663ZM179.836 43.4583C179.324 43.4583 178.924 43.3143 178.636 43.0263C178.348 42.7383 178.204 42.3383 178.204 41.8263C178.204 41.6343 178.22 41.4023 178.252 41.1303C178.284 40.8583 178.324 40.5783 178.372 40.2903C178.42 39.9863 178.468 39.7063 178.516 39.4503C178.58 39.1783 178.628 38.9463 178.66 38.7543L180.292 30.7383L183.028 30.4503L181.012 40.4823C180.996 40.6103 180.972 40.7783 180.94 40.9863C180.908 41.1783 180.892 41.3463 180.892 41.4903C180.892 41.7303 180.948 41.9223 181.06 42.0663C181.188 42.2103 181.372 42.2903 181.612 42.3063C181.516 42.7063 181.292 42.9943 180.94 43.1703C180.604 43.3623 180.236 43.4583 179.836 43.4583ZM182.26 28.6263C181.748 28.6263 181.324 28.5063 180.988 28.2663C180.652 28.0103 180.484 27.6343 180.484 27.1383C180.484 26.6103 180.66 26.2263 181.012 25.9863C181.364 25.7303 181.796 25.6023 182.308 25.6023C182.82 25.6023 183.244 25.7303 183.58 25.9863C183.916 26.2263 184.084 26.5943 184.084 27.0903C184.084 27.6183 183.908 28.0103 183.556 28.2663C183.204 28.5063 182.772 28.6263 182.26 28.6263ZM188.545 43.4583C188.081 43.4583 187.569 43.4103 187.009 43.3143C186.449 43.2343 185.905 43.1063 185.377 42.9303C184.849 42.7383 184.393 42.5143 184.009 42.2583L185.929 32.4423L188.161 32.6823C188.577 31.9143 189.113 31.3223 189.769 30.9063C190.425 30.4743 191.177 30.2583 192.025 30.2583C192.841 30.2583 193.489 30.4583 193.969 30.8583C194.465 31.2583 194.817 31.8023 195.025 32.4903C195.249 33.1783 195.361 33.9463 195.361 34.7943C195.361 35.8503 195.217 36.8903 194.929 37.9143C194.657 38.9383 194.241 39.8743 193.681 40.7223C193.121 41.5543 192.409 42.2183 191.545 42.7143C190.697 43.2103 189.697 43.4583 188.545 43.4583ZM188.881 42.0183C189.361 42.0183 189.793 41.8823 190.177 41.6103C190.577 41.3223 190.921 40.9383 191.209 40.4583C191.513 39.9623 191.769 39.3943 191.977 38.7543C192.185 38.0983 192.337 37.4103 192.433 36.6903C192.529 35.9543 192.577 35.2183 192.577 34.4823C192.577 33.7303 192.465 33.1463 192.241 32.7303C192.017 32.3143 191.625 32.1063 191.065 32.1063C190.585 32.1063 190.161 32.2343 189.793 32.4903C189.425 32.7463 189.113 33.0823 188.857 33.4983C188.601 33.9143 188.385 34.3703 188.209 34.8663C188.049 35.3463 187.921 35.8183 187.825 36.2823L186.889 41.2983C187.193 41.5383 187.521 41.7223 187.873 41.8503C188.225 41.9623 188.561 42.0183 188.881 42.0183ZM188.161 32.9943L185.905 32.6103C186.033 31.9543 186.161 31.2343 186.289 30.4503C186.417 29.6503 186.529 28.8743 186.625 28.1223C186.721 27.3543 186.769 26.6903 186.769 26.1303C186.785 25.9383 186.785 25.7703 186.769 25.6263C186.769 25.4823 186.753 25.3463 186.721 25.2183C186.881 25.1063 187.073 25.0263 187.297 24.9783C187.521 24.9143 187.745 24.8823 187.969 24.8823C188.401 24.8823 188.793 25.0103 189.145 25.2663C189.497 25.5063 189.673 25.9463 189.673 26.5863C189.673 27.0503 189.601 27.6343 189.457 28.3383C189.329 29.0263 189.153 29.7783 188.929 30.5943C188.705 31.3943 188.449 32.1943 188.161 32.9943ZM201.206 43.4583C200.294 43.4583 199.502 43.2903 198.83 42.9543C198.174 42.6023 197.67 42.0743 197.318 41.3703C196.966 40.6663 196.79 39.7783 196.79 38.7063C196.79 37.6983 196.926 36.6983 197.198 35.7063C197.486 34.6983 197.91 33.7863 198.47 32.9703C199.03 32.1543 199.742 31.4983 200.606 31.0023C201.486 30.5063 202.518 30.2583 203.702 30.2583C204.326 30.2583 204.886 30.3463 205.382 30.5223C205.878 30.6983 206.27 30.9863 206.558 31.3863C206.846 31.7863 206.99 32.3303 206.99 33.0183C206.99 33.9463 206.71 34.7303 206.15 35.3703C205.606 35.9943 204.878 36.4743 203.966 36.8103C203.054 37.1303 202.046 37.2903 200.942 37.2903C200.734 37.2903 200.502 37.2903 200.246 37.2903C200.006 37.2743 199.806 37.2583 199.646 37.2423C199.63 37.4983 199.614 37.7543 199.598 38.0103C199.582 38.2503 199.574 38.4743 199.574 38.6823C199.574 39.5463 199.734 40.2263 200.054 40.7223C200.374 41.2023 200.958 41.4423 201.806 41.4423C202.494 41.4423 203.11 41.2823 203.654 40.9623C204.198 40.6263 204.622 40.1543 204.926 39.5463C205.15 39.6103 205.302 39.7383 205.382 39.9303C205.462 40.1223 205.502 40.3223 205.502 40.5303C205.502 41.0103 205.334 41.4743 204.998 41.9223C204.662 42.3703 204.174 42.7383 203.534 43.0263C202.894 43.3143 202.118 43.4583 201.206 43.4583ZM199.814 36.0663C200.358 36.0663 200.894 36.0103 201.422 35.8983C201.966 35.7863 202.462 35.6103 202.91 35.3703C203.358 35.1143 203.71 34.7943 203.966 34.4103C204.238 34.0103 204.374 33.5463 204.374 33.0183C204.374 32.5543 204.262 32.2103 204.038 31.9863C203.83 31.7463 203.526 31.6263 203.126 31.6263C202.678 31.6263 202.262 31.7703 201.878 32.0583C201.51 32.3303 201.19 32.6903 200.918 33.1383C200.646 33.5863 200.414 34.0663 200.222 34.5783C200.046 35.0903 199.91 35.5863 199.814 36.0663Z" fill="#FF5B03"/>
<defs>
<linearGradient id="paint0_linear_134_2399" x1="55.4993" y1="46.8828" x2="76.734" y2="24.2604" gradientUnits="userSpaceOnUse">
<stop stop-color="#FF5B03"/>
<stop offset="1" stop-color="#FF8F52"/>
</linearGradient>
</defs>
</svg>

