<svg width="106" height="26" viewBox="0 0 106 26" fill="none" xmlns="http://www.w3.org/2000/svg">
<path d="M7.06684 21.2589L4.15663 25.9302L7.24163 24.7765L9.8915 21.5226L13.9925 21.2617L16.0536 17.9568L15.6769 14.9339L18.9717 14.5438L22.0995 10.9225L21.4468 7.77226L25.1729 7.03877L29.9403 0.635656C21.4584 0.431698 16.3652 3.16277 6.40253 15.3786L7.06684 21.2589Z" fill="url(#paint0_linear_355_1741)"/>
<path d="M41.5788 5.5798H39.4428V11.0758H41.5548C42.2268 11.0758 42.8268 10.9878 43.3548 10.8118C43.8988 10.6198 44.3308 10.3318 44.6508 9.9478C44.9868 9.5638 45.1548 9.0358 45.1548 8.3638C45.1548 7.6758 45.0028 7.1318 44.6988 6.7318C44.4108 6.3318 44.0028 6.0438 43.4748 5.8678C42.9468 5.6758 42.3148 5.5798 41.5788 5.5798ZM36.7788 3.3238H41.6508C42.8188 3.3238 43.8828 3.4998 44.8428 3.8518C45.8028 4.1878 46.5628 4.7158 47.1228 5.4358C47.6828 6.1558 47.9628 7.0918 47.9628 8.2438C47.9628 9.2998 47.6988 10.1878 47.1708 10.9078C46.6428 11.6118 45.9708 12.1478 45.1548 12.5158L49.1868 19.6438H46.3068L42.7548 13.2358C42.5628 13.2518 42.3228 13.2678 42.0348 13.2838C41.7468 13.2838 41.4828 13.2838 41.2428 13.2838H39.4428V19.6438H36.7788V3.3238ZM52.8644 16.2118C52.8644 16.4838 52.9284 16.7398 53.0564 16.9798C53.2004 17.2198 53.4004 17.4198 53.6564 17.5798C53.9124 17.7238 54.2164 17.7958 54.5684 17.7958C55.0804 17.7958 55.5764 17.6758 56.0564 17.4358C56.5364 17.1958 56.9844 16.8678 57.4004 16.4518V14.3638H54.7844C54.1764 14.3638 53.7044 14.5558 53.3684 14.9398C53.0324 15.3238 52.8644 15.7478 52.8644 16.2118ZM51.8804 10.9318L51.1604 8.7238C51.4644 8.5158 51.8724 8.3398 52.3844 8.1958C52.8964 8.0358 53.4164 7.9158 53.9444 7.8358C54.4724 7.7398 54.8964 7.6918 55.2164 7.6918C56.1284 7.6918 56.9524 7.8758 57.6884 8.2438C58.4244 8.5958 59.0084 9.0918 59.4404 9.7318C59.8884 10.3718 60.1124 11.0838 60.1124 11.8678V19.6438H58.2884L57.8804 18.4678C57.4644 18.8678 56.9684 19.2118 56.3924 19.4998C55.8164 19.7878 55.2244 19.9318 54.6164 19.9318C53.2244 19.9318 52.1924 19.5878 51.5204 18.8998C50.8484 18.2118 50.5124 17.3158 50.5124 16.2118C50.5124 15.0438 50.9124 14.1478 51.7124 13.5238C52.5124 12.8998 53.5524 12.5798 54.8324 12.5638H57.3764V12.4918C57.3604 11.8038 57.1924 11.2438 56.8724 10.8118C56.5524 10.3638 56.0164 10.1398 55.2644 10.1398C54.6564 10.1398 54.0484 10.2278 53.4404 10.4038C52.8484 10.5638 52.3284 10.7398 51.8804 10.9318ZM65.5856 24.6358L62.9216 24.8998V8.0038H64.3376L65.5856 9.6598V24.6358ZM64.6256 11.6518L63.8576 9.8038C64.2096 9.3398 64.6176 8.9558 65.0816 8.6518C65.5456 8.3318 66.0176 8.0918 66.4976 7.9318C66.9936 7.7718 67.4576 7.6918 67.8896 7.6918C69.0896 7.6918 70.1216 7.9478 70.9856 8.4598C71.8656 8.9558 72.5376 9.6678 73.0016 10.5958C73.4816 11.5078 73.7216 12.5878 73.7216 13.8358C73.7216 15.0518 73.4816 16.1238 73.0016 17.0518C72.5216 17.9638 71.8416 18.6758 70.9616 19.1878C70.0976 19.6998 69.0496 19.9558 67.8176 19.9558C67.4336 19.9558 66.9776 19.8678 66.4496 19.6918C65.9376 19.5158 65.4416 19.2678 64.9616 18.9478C64.4976 18.6278 64.1136 18.2518 63.8096 17.8198L64.6016 15.9478C65.1296 16.5718 65.6416 17.0118 66.1376 17.2678C66.6496 17.5078 67.2096 17.6278 67.8176 17.6278C68.4896 17.6278 69.0576 17.4678 69.5216 17.1478C69.9856 16.8118 70.3376 16.3558 70.5776 15.7798C70.8176 15.2038 70.9376 14.5638 70.9376 13.8598C70.9376 13.0918 70.8176 12.4198 70.5776 11.8438C70.3536 11.2678 70.0096 10.8198 69.5456 10.4998C69.0816 10.1638 68.5136 9.9958 67.8416 9.9958C67.2016 9.9958 66.6336 10.1318 66.1376 10.4038C65.6576 10.6758 65.1536 11.0918 64.6256 11.6518ZM78.5699 24.6358L75.9059 24.8998V8.0038H77.3219L78.5699 9.6598V24.6358ZM77.6099 11.6518L76.8419 9.8038C77.1939 9.3398 77.6019 8.9558 78.0659 8.6518C78.5299 8.3318 79.0019 8.0918 79.4819 7.9318C79.9779 7.7718 80.4419 7.6918 80.8739 7.6918C82.0739 7.6918 83.1059 7.9478 83.9699 8.4598C84.8499 8.9558 85.5219 9.6678 85.9859 10.5958C86.4659 11.5078 86.7059 12.5878 86.7059 13.8358C86.7059 15.0518 86.4659 16.1238 85.9859 17.0518C85.5059 17.9638 84.8259 18.6758 83.9459 19.1878C83.0819 19.6998 82.0339 19.9558 80.8019 19.9558C80.4179 19.9558 79.9619 19.8678 79.4339 19.6918C78.9219 19.5158 78.4259 19.2678 77.9459 18.9478C77.4819 18.6278 77.0979 18.2518 76.7939 17.8198L77.5859 15.9478C78.1139 16.5718 78.6259 17.0118 79.1219 17.2678C79.6339 17.5078 80.1939 17.6278 80.8019 17.6278C81.4739 17.6278 82.0419 17.4678 82.5059 17.1478C82.9699 16.8118 83.3219 16.3558 83.5619 15.7798C83.8019 15.2038 83.9219 14.5638 83.9219 13.8598C83.9219 13.0918 83.8019 12.4198 83.5619 11.8438C83.3379 11.2678 82.9939 10.8198 82.5299 10.4998C82.0659 10.1638 81.4979 9.9958 80.8259 9.9958C80.1859 9.9958 79.6179 10.1318 79.1219 10.4038C78.6419 10.6758 78.1379 11.0918 77.6099 11.6518ZM91.6503 19.6438H88.9863V2.9638L91.6503 2.6998V19.6438ZM97.028 20.6758L97.676 19.0918L93.524 8.4598L96.14 7.5718L99.116 15.7318L101.924 8.0038H104.756L99.572 21.4678C99.348 22.0438 99.004 22.5718 98.54 23.0518C98.092 23.5318 97.572 23.9318 96.98 24.2518C96.388 24.5718 95.772 24.8118 95.132 24.9718L94.196 22.7878C94.564 22.6278 94.94 22.4518 95.324 22.2598C95.724 22.0678 96.076 21.8438 96.38 21.5878C96.684 21.3318 96.9 21.0278 97.028 20.6758Z" fill="url(#paint1_linear_355_1741)"/>
<defs>
<linearGradient id="paint0_linear_355_1741" x1="5.78762" y1="24.8891" x2="28.2602" y2="0.327595" gradientUnits="userSpaceOnUse">
<stop stop-color="#7E0056"/>
<stop offset="1" stop-color="#F20070"/>
</linearGradient>
<linearGradient id="paint1_linear_355_1741" x1="105.897" y1="0.860925" x2="34.9664" y2="25.0642" gradientUnits="userSpaceOnUse">
<stop stop-color="#F20070"/>
<stop offset="1" stop-color="#7F0157"/>
</linearGradient>
</defs>
</svg>
